<svg version="1.1" xmlns="http://www.w3.org/2000/svg" viewBox="0 0 905.1224256922624 491.75" width="2715.367277076787" height="1475.25">
  <!-- svg-source:excalidraw -->
  
  <defs>
    <style class="style-fonts">
      @font-face {
        font-family: "Virgil";
        src: url("https://excalidraw.com/Virgil.woff2");
      }
      @font-face {
        font-family: "Cascadia";
        src: url("https://excalidraw.com/Cascadia.woff2");
      }
    </style>
  </defs>
  <g stroke-linecap="round" transform="translate(10 69.5) rotate(0 95 48.5)"><path d="M0 0 C0 0, 0 0, 0 0 M0 0 C0 0, 0 0, 0 0 M0.19 6.38 C0.61 5.24, 2.11 3.43, 5.18 0.68 M-0.41 6.29 C0.74 4.97, 2 3.52, 5.32 0.67 M1.25 12.48 C2.94 7.24, 8.18 2.98, 9.04 -0.33 M-0.12 11.99 C2.8 8.12, 7.02 4.94, 9.93 0.21 M-0.4 20.23 C4.61 12.22, 13.6 5.76, 17.56 0.22 M-0.66 18.41 C5.39 12.58, 10.22 5.82, 14.99 1.03 M0.49 25.12 C6.95 16.55, 11.25 11.07, 21.48 1.07 M0.53 23.5 C8.91 15.28, 16.53 5.66, 21.62 -0.33 M0.91 29.05 C10.73 20.97, 17.44 9.79, 27.79 0.27 M0.98 31.08 C8.89 21.79, 17.62 11.91, 26.82 -0.28 M-0.25 37.07 C11.47 23.81, 25.57 8.5, 31.53 -1.32 M0.18 36.65 C11.42 21.87, 23.76 8.9, 31.4 -0.04 M0.43 44.49 C9.41 30.25, 19.37 21.92, 36.45 0.6 M0.88 41.81 C15.29 25.9, 29.47 10.07, 36.94 -0.28 M-0.75 49.83 C9.29 37.12, 20.44 23.91, 40.58 0.43 M-0.48 49.64 C14.81 33.3, 27.61 17.03, 42.36 -1.08 M-1.7 54.19 C11.98 43.77, 19.25 31.52, 49.31 -0.57 M0.12 53.59 C13.8 37.75, 28.98 23.07, 47.01 -0.68 M-1.49 62.02 C16.92 40.8, 30.13 24.57, 52.94 0.31 M-0.64 60.68 C15.41 43.26, 29.56 26.92, 53.25 0.6 M0.56 68.5 C22.52 42.95, 42.5 15.89, 59.72 -0.01 M0.58 66.39 C18.9 45.03, 40.01 22.06, 57.61 -0.42 M1.22 72.49 C16.76 57.44, 28.88 37.66, 65.45 0.25 M0.11 72.02 C18.52 51.1, 37.68 29.29, 63.31 0.31 M-0.27 79.48 C22.8 51.83, 46.01 21.68, 70.52 0.45 M0.64 79.2 C14.56 63.17, 28.87 45.08, 69.37 -0.69 M0.63 87.03 C19.45 61.78, 40.77 41.52, 73.48 0.17 M0.18 85.68 C22.13 59.32, 41.96 35.9, 75.23 -0.37 M0.91 91.44 C31.5 56.11, 63.02 20.79, 80.1 -0.04 M0.16 91.55 C16.47 72.46, 32.65 53.37, 79.85 0.09 M1.49 96.43 C28.85 62.46, 56.99 28.44, 84.94 -0.04 M0.98 96.41 C29.07 61.92, 59.33 28.12, 84.24 -0.6 M3.62 97.83 C21.8 76.98, 39.72 55.71, 88.4 0.65 M5.4 97.44 C35.76 62.92, 67.1 27.79, 90.62 -0.71 M12.61 98.34 C30.31 73.19, 53.8 47.19, 94.27 1.48 M10.37 96.68 C31.63 71.95, 53.32 45.69, 95 -1.28 M16.68 96.14 C44.15 62.22, 74.27 30.6, 98.85 1.6 M16.87 97.14 C39.22 70.7, 62.78 42.42, 100.24 1.01 M21.3 95.57 C49.43 64.1, 79.45 31.22, 104.44 -1.47 M22.23 97.88 C53.01 60.21, 83.38 24.86, 106.69 -0.02 M28.18 97.86 C48.39 75.38, 64.61 50.65, 112.44 0.86 M26.29 98.27 C43.21 77.94, 60.14 58.87, 111.25 -0.86 M30.92 97.79 C63.92 60.94, 95.56 23.85, 116.27 -0.33 M32.91 97.08 C57.39 68.37, 84.08 38.34, 115.31 0.57 M38 98.4 C61.88 71.34, 83.66 42.52, 121.69 1.47 M38.12 96.66 C59.18 70.84, 81.93 44.72, 121.16 0.32 M44.37 95.64 C68.93 65.77, 97.57 34.33, 125.13 -0.85 M43.72 96.09 C65.47 70.45, 88.38 45.83, 127.31 0.88 M46.53 97.13 C67.19 76.98, 87.15 54.18, 132.63 1.41 M47.33 97.38 C69.92 70.32, 93.13 44.12, 133.47 -1.02 M54.07 98.76 C85.14 62.91, 113.55 28.03, 138.9 -0.55 M54 96.54 C81.65 64.35, 112.29 29.26, 136.64 -0.16 M56.72 95.43 C93.43 59.5, 123.04 24.64, 142.86 -0.35 M58.34 97.82 C84.83 68.93, 109.49 38.57, 142.68 0.28 M63.96 97.72 C79.85 79.75, 95.53 57.71, 146.7 2.27 M64.05 96.79 C96.87 58.16, 130.33 21.58, 148.43 0.89 M68.03 98.6 C99.09 62.09, 132.27 22.23, 155.47 -1.89 M70.07 96.57 C95.74 67.38, 121 38.08, 153.26 -0.83 M74.87 98.84 C95.32 73.35, 116.09 48, 160.13 -0.74 M73.49 97.71 C103.11 65.81, 131.24 33.4, 159.25 -0.28 M78.46 97.95 C99.99 76.81, 117.82 54.33, 165.1 -0.29 M78.92 96.55 C108.1 64.25, 136.49 31.74, 164.67 -0.64 M85.14 99.13 C105.15 74.76, 126.94 50.05, 171.35 2.08 M84.9 96.71 C109.37 70.5, 133.38 41.86, 170.18 -0.68 M90.54 96.72 C110.23 72.66, 133.23 49.22, 175.93 -1.7 M89.79 97.9 C113.66 70.58, 136.87 43.48, 174.35 0.34 M96.65 96.84 C124.31 65.07, 150.42 34.01, 179.05 0.31 M94.9 97.19 C116.11 74.94, 135.45 52.18, 179.79 0.9 M101.34 96.14 C129.54 60.93, 158.67 29.56, 187.65 0.73 M101.05 97.05 C130.9 62.74, 159.97 28.26, 184.72 0.33 M107.47 98.44 C126.34 70.69, 152.08 48.53, 190.45 -0.46 M105.7 96.59 C136.05 63.66, 165.57 28.06, 191.11 0.98 M112.43 97.42 C139.74 67.04, 168.69 33.49, 191.6 7.58 M111.54 97.67 C141.32 62.42, 173.26 26.8, 190.3 6.14 M117.21 97.35 C133.72 77.95, 149 62.15, 192.14 12.13 M117.54 98.1 C137.56 74.3, 156.77 52.09, 189.52 13.14 M123.96 95.72 C142.85 74.92, 161.63 50.93, 189.85 20.14 M121.61 97.73 C145.61 70.34, 169.96 44.2, 189.79 19.04 M129.02 95.97 C147.67 76.88, 166.55 53.88, 190.21 24 M127.63 97.68 C151.76 68.3, 176.33 40.87, 189.85 25.83 M132.56 98.17 C147.5 80.59, 161.34 63.84, 189.29 30.86 M132.09 96.44 C146.66 81.78, 159.15 65.67, 191.15 30.27 M139.57 95.68 C153.36 77.71, 169.44 59.63, 188.82 37.39 M137.16 97.06 C150.2 84.01, 163.24 68.99, 189.93 36.1 M145.44 97.87 C160.62 80.29, 174.39 62.92, 191.08 43.2 M143.29 97.29 C160.5 77.81, 177.47 57.71, 190.11 43.9 M149.04 98.81 C165.03 79.32, 178.76 64.97, 189.3 49.75 M148.3 96.74 C159.21 85.55, 170.26 72.42, 190.74 49.51 M154.29 95.9 C168.91 81.03, 179.11 68, 191.91 57.34 M153.99 97.02 C165 86.41, 174.86 74.41, 190.32 55.48 M159.19 98.66 C171.5 83.95, 183.35 67.21, 191.53 60.49 M159.22 96.95 C172.01 83.77, 185.39 68.96, 190.76 61.9 M165.39 95.3 C174.78 87.42, 185.16 74.89, 190 68.68 M164.48 96.65 C170.92 89.78, 177.98 82.68, 190.46 67.61 M171.27 97.51 C176.05 89.47, 185.41 80.37, 191.27 73.75 M169.05 96.74 C177.91 88.36, 186.5 79.85, 190.27 73.1 M173.49 95.08 C179.11 95.19, 182.06 89.45, 189.77 78.85 M175.52 96.46 C180.18 90.01, 187.24 84.77, 189.84 79.89 M180.17 96.77 C181.39 94.97, 185.61 91.56, 189.14 85.52 M180.82 96.97 C182.81 94.4, 184.28 91.58, 190.84 85.21 M186.18 97.35 C186.01 96.56, 187.26 95.63, 190.89 91.11 M185.15 97.67 C186.8 95.67, 188.8 93.97, 190.72 91.22" stroke="#fab005" stroke-width="0.5" fill="none"></path><path d="M1.15 0.62 C77.54 -0.59, 152.42 -2.87, 190.89 -0.67 M-0.33 -0.9 C39.63 -2.03, 81.11 -2.2, 189.6 0.55 M189.8 -1.65 C189.09 28.2, 189.91 52.76, 188.64 96.32 M191 -0.17 C189.55 24.92, 188.65 49.94, 189.08 96.99 M189.67 95.82 C114.11 97.12, 39.86 96.74, -1.19 95.81 M189.39 96.57 C135.2 94.85, 78.48 95.24, 0.8 97.33 M0 96.39 C-1.18 74.17, 0.68 53.89, 0.45 0.38 M0.34 97.39 C1 69.19, 1.8 41.49, 0.3 -0.14" stroke="#000000" stroke-width="1" fill="none"></path></g><g transform="translate(52.20833206176758 105.5) rotate(0 52.79166793823242 12.5)"><text x="0" y="0" font-family="Virgil, Segoe UI Emoji" font-size="20px" fill="#000000" text-anchor="start" style="white-space: pre;" direction="ltr" dominant-baseline="text-before-edge">Compilation</text></g><g stroke-linecap="round"><g transform="translate(10.350408492455756 49.35220582261471) rotate(0 183.30030753466275 -0.17492588426043199)"><path d="M-0.35 -1.1 C75.63 -0.36, 151.32 1.9, 366.95 0.66 M0.17 -0.38 C84.28 -1.37, 168.77 -2.2, 365.88 0.15" stroke="#000000" stroke-width="1" fill="none"></path></g></g><mask></mask><g stroke-linecap="round"><g transform="translate(451 48.9368672320291) rotate(0 219.76700676173766 0.24041270632518774)"><path d="M-0.64 0 C106.87 0.53, 214.01 1.41, 439.89 -0.18 M0.35 0.22 C105.1 -0.3, 210.06 -0.23, 440.17 -0.25" stroke="#000000" stroke-width="1" fill="none"></path></g></g><mask></mask><g transform="translate(131.07571526417905 10) rotate(0 60.57500076293945 12.5)"><text x="0" y="0" font-family="Virgil, Segoe UI Emoji" font-size="20px" fill="#000000" text-anchor="start" style="white-space: pre;" direction="ltr" dominant-baseline="text-before-edge">Compile Time</text></g><g transform="translate(633.9920052358589 11) rotate(0 36.775001525878906 12.5)"><text x="0" y="0" font-family="Virgil, Segoe UI Emoji" font-size="20px" fill="#000000" text-anchor="start" style="white-space: pre;" direction="ltr" dominant-baseline="text-before-edge">Runtime</text></g><g stroke-linecap="round" transform="translate(450.3645783369657 69.5) rotate(0 143.5 48.5)"><path d="M0 0 C0 0, 0 0, 0 0 M0 0 C0 0, 0 0, 0 0 M0.12 5.93 C1.78 4.07, 3.37 2.17, 4.7 1.1 M-0.06 6.5 C1.14 5.42, 1.95 3.94, 4.95 0.63 M-0.12 12.75 C2.19 7.45, 6.61 6.92, 9.06 -1.46 M-0.37 11.31 C1.96 9.83, 4.86 5.73, 11.02 -0.16 M-1 18.02 C5.47 14.03, 10.57 6.81, 15.66 -0.67 M-1.04 18.32 C5.77 11.97, 11.43 5.26, 15.11 -0.41 M0.7 23.8 C8.26 13.4, 14.89 5.38, 21.26 0.45 M1 23.51 C8.36 14.78, 16.18 6.83, 20.42 0.76 M0.85 32.26 C4.22 25.37, 11.67 17.74, 27.77 -0.8 M0.43 30.83 C6.79 23.36, 12.47 16.2, 26.08 0.96 M-2.23 35.53 C7.93 28.99, 15.28 19.66, 31.34 0.8 M0.35 36.2 C8.4 28.29, 16.83 18.67, 32.2 0.23 M0.47 40.76 C9.46 31.31, 21.29 18.85, 37 0.72 M0.56 42.69 C10.47 32.06, 19.09 22.43, 36.02 1.22 M-0.93 49.14 C15.02 29.68, 34.64 9.78, 42.28 1.37 M-1.09 48.97 C8.96 38.22, 17.25 29.17, 41.54 0.29 M-0.38 53.27 C12.46 41.73, 22.2 28.73, 48.23 -1.22 M0.25 55.17 C16.45 35.97, 33.16 16, 47.61 -0.28 M-0.76 59.9 C16.03 43.75, 33.79 23.14, 55 -0.71 M0.53 61.09 C19.06 37.6, 38.48 14.59, 53.51 0.8 M0.95 67.31 C19.55 44.92, 40 20.82, 56.9 -1.76 M-0.28 68.06 C21.25 42.57, 40.84 20.51, 59.05 0.07 M0.08 72.29 C15.15 54.14, 34.99 33.8, 61.96 0.64 M-0.8 73.37 C24.32 44.55, 49.5 16.74, 64.17 0.38 M0.59 79.08 C24.68 49.93, 48.16 25.78, 66.98 -0.1 M0.14 79.66 C18.52 59.46, 35.8 38.68, 69.01 1.14 M-0.05 86.76 C21.12 64.74, 37.39 42.02, 73.13 -1.52 M-0.58 85.86 C23.49 58.01, 47.82 30.28, 73.54 -0.6 M-1.76 90.01 C30.98 55.87, 59.29 22.85, 80.98 -1.42 M0.72 92.29 C26.78 60.43, 55.85 28.77, 79.63 0.08 M-0.3 97.72 C21.29 72, 40.63 46.88, 86.05 -1.17 M1.14 96.88 C34.19 60.11, 66.24 22.53, 84.65 -0.98 M7.04 95.71 C31.31 67.57, 60.18 35.36, 89.91 1.01 M5.52 98.25 C26.97 70.8, 49.68 45, 89.56 -0.72 M11.25 95.48 C38.03 65.99, 67.41 36.33, 95.74 -1.31 M11.31 97.97 C28.82 77.26, 46.66 56.09, 96.51 0.15 M16.42 96.81 C40.55 69.75, 64.82 41.99, 99.34 -0.06 M15.38 97.64 C45.84 64.79, 73.78 30.5, 100.92 -0.58 M20.04 96.46 C49.24 64.46, 79.05 32.62, 104.78 0.02 M21.37 97.05 C49.75 63.82, 79.22 28.56, 107.1 0.46 M26.07 96.92 C60.43 60.8, 95.09 22.38, 111.37 0.06 M26.83 97.37 C52.13 67.85, 77.48 38.16, 110.31 0.43 M30.52 97 C53.29 71.55, 77.87 47.16, 116.63 0.5 M31.74 97.25 C62.88 60.62, 96.09 24.47, 115.74 0.16 M38.48 96.61 C67.71 61.93, 99.17 28.48, 122.61 0.03 M37.67 98.06 C63.28 66.88, 89.88 37.55, 121.83 0.53 M41.7 95.38 C65.6 68.98, 91.44 41.99, 128.24 0.53 M42.32 95.95 C61.53 76.54, 81.91 55.08, 126.69 -0.06 M47.66 97.4 C68.84 69.19, 91.38 46.15, 134.23 -1.51 M48.67 97.11 C76.87 64.36, 105.77 33.05, 132.04 -0.83 M53.11 97.85 C76.4 70.83, 99.25 42.43, 136.12 1.72 M53.5 97.82 C71.25 75.72, 89.03 56.15, 138.25 0.55 M57.16 95.78 C79.51 73.03, 98.43 51.96, 141.9 0.04 M58.57 97.69 C77.1 77.49, 94.63 55.32, 143.01 0.09 M62.81 96.66 C86.72 68.64, 111.4 44.85, 148.98 1.93 M65.15 97.77 C95.74 60.01, 129.75 20.75, 148.35 0.71 M70.05 97.21 C99.48 63.53, 133.7 24.12, 153.84 1.25 M69.13 97.73 C97.84 62.27, 128.9 29.11, 153.28 0.29 M72.74 96.74 C95.11 72.03, 118.18 46.3, 157.05 1.94 M74.97 96.74 C96.91 71.73, 121.11 45.15, 158.89 0.93 M78.94 98.13 C112.01 63.51, 139.32 24.8, 164.81 0.67 M80.06 96.91 C101.84 73.3, 122.25 49.24, 164.89 -0.97 M85.32 98.76 C118.24 61.31, 151.27 20.84, 170.08 -0.46 M84.11 97.68 C107.18 70.55, 128.39 45.55, 168.76 0.5 M91.98 95.94 C117.94 67.85, 143.52 35.32, 174.08 0.8 M90.07 97.71 C119.6 62.24, 151.25 26, 174.33 -1.15 M93.57 97.61 C123.63 64.2, 154.21 31.14, 179.38 -0.52 M96.25 97.07 C112.2 77.55, 131 57.9, 180.86 0.44 M102.83 99 C129.64 64.18, 157.13 30.02, 187.47 -1.88 M101.86 96.35 C120.28 74.16, 141.48 50.46, 185.62 0.54 M105.66 97.38 C135.62 64.64, 168.92 27.06, 191.78 -0.54 M105.18 96.87 C128.74 71.59, 151.35 43.9, 191.03 0.56 M112.69 96.65 C136.46 67.65, 161.66 36.25, 195.31 1.08 M111.1 97.81 C144.87 59.14, 179.49 19.19, 197.22 0.16 M118.32 98.15 C137 78.04, 152.26 55.74, 199.63 0.16 M117.21 98.36 C138.84 73.95, 157.98 49.54, 201.14 0.43 M124.3 97.21 C151.95 64.98, 178.88 33.77, 206.48 0.09 M121.44 96.86 C142.2 73.41, 163.08 49.71, 207.12 0.04 M126.79 97.96 C148.87 74.85, 169.07 50.11, 210.81 -0.77 M128.11 97.02 C149.37 72.14, 170.44 46.74, 212.01 0.39 M131.91 97.93 C158.66 69.37, 181.25 42.29, 218.38 1.54 M133.55 97.02 C159.66 65.22, 188.73 32.55, 217.74 -0.23 M138.85 98.82 C162.74 65.01, 191.16 36.42, 222.76 1.3 M138.15 97.66 C159.34 72.6, 180.2 46.75, 222.46 0.54 M143.34 95.08 C169.51 66.67, 195.61 38.96, 226.95 -2.22 M144.04 97.57 C171.48 66.04, 200.06 34.89, 229.04 -0.78 M148.81 96.7 C173.6 70.26, 196.64 41.85, 232.42 -0.05 M149.07 97.32 C175.55 66.87, 201.77 35.08, 232.29 -0.26 M153.89 97.85 C174.15 75.05, 191.13 54.96, 240.01 1.89 M154.52 96.57 C174.73 74.11, 195.76 49.64, 238.77 0.25 M159.52 95.56 C186.61 69.26, 210.12 38.49, 242.28 -0.26 M159.11 98.3 C189.1 62.65, 217.75 29.8, 243.28 0.62 M164.44 98.43 C195.83 62.08, 227.85 23.78, 249.86 -1.35 M164.61 97.85 C197.09 59, 229.41 21.24, 248.15 0.76 M168.34 97.31 C195.55 64.6, 222.73 34.92, 254.35 -1.81 M169.97 97.18 C198.9 61.52, 229.79 28.04, 254.22 0.58 M175.37 97.97 C191.95 73.94, 210.86 53.5, 259.37 -0.93 M174.88 95.98 C197.5 73.14, 218.59 48.71, 258.91 0.15 M181.19 95.83 C213.42 58.65, 244.13 22.97, 264.17 -0.21 M179.87 97.81 C198.01 77.52, 215.48 57.75, 265.85 0.79 M183.94 97.35 C208.92 71.02, 229.66 45.67, 270.62 -0.62 M185.24 98.06 C216.25 63.17, 247.56 26.31, 270.92 -0.66 M190.5 98.98 C219.74 63.98, 248.5 33.28, 274.82 -1.99 M190.47 96.3 C217.19 70.53, 241.22 40.99, 275.91 -0.82 M196.91 96.14 C226.23 60.86, 258.68 25.48, 282.18 -0.23 M196.56 97.72 C219.67 69.81, 244.41 41.58, 280.54 0.52 M201.24 98.58 C228.17 65.51, 256.36 36.78, 286.91 1.28 M201.96 98.02 C218.7 76.72, 235.9 56.88, 286.12 -0.56 M208.63 99.15 C227.73 73.03, 246.73 52.05, 289.21 0.69 M207.71 96.58 C241.03 59.57, 272.47 20.53, 289.64 2.4 M212.9 96.42 C235.03 69.46, 258.73 44.76, 289.37 7.3 M211.98 96.61 C235.16 70.46, 256.71 45.9, 289.98 8.32 M217.59 99.41 C241.19 70.54, 266.47 40.89, 290.82 15.8 M217.21 98.3 C238.91 72.74, 260.37 47.5, 289.98 14.25 M221.51 98.25 C242.51 72.88, 262.93 51.23, 291.14 20.67 M222.68 96.97 C242.54 73.8, 262.98 50.33, 289.46 20.29 M227.84 96.91 C249.06 72.06, 274.25 46.8, 287.7 27.4 M227.58 98.27 C244.13 80.09, 259.2 61.81, 289.91 26.25 M233.65 95.81 C255.29 72.25, 276.09 52.53, 290.01 33.43 M233.67 96.28 C251.47 75.93, 270.9 55.15, 288.83 33.06 M238.97 96.61 C256.88 76.18, 275.64 54.36, 288.59 39.56 M238.3 96.7 C253.98 79.64, 270.27 62.08, 289.71 37.64 M244.39 96.8 C254.19 85.53, 263.48 71.02, 288.07 46.66 M245.06 96.97 C255.58 82.92, 269.39 68.49, 289.09 44.12 M248.07 98.45 C260.58 84.46, 269.04 73.96, 288.07 51.08 M248.84 97.51 C264.33 81.16, 277.02 66.06, 288.51 50.69 M255.36 98.87 C263.55 85.97, 272.83 76.63, 291.58 57.62 M254.44 97.75 C261.55 87.93, 269.09 79.61, 288.89 57.02 M259.8 99.32 C266.32 90.14, 277.24 79.24, 291.24 62.46 M259.66 97.42 C269.07 88.07, 277.08 76.49, 289.88 62.68 M264.72 95.67 C273.33 90.11, 278.14 81.91, 288.33 70.56 M265.89 96.59 C274.18 85.8, 283.05 76.61, 288.85 69.03 M272.31 99.1 C274.81 89.23, 282.66 84.15, 287.75 74.43 M271.2 96.91 C275.1 91.29, 280.79 84.58, 288.92 75.4 M277.15 98.79 C278.71 94.51, 283.03 89.57, 288.99 83.45 M276.96 97.71 C281.37 90.57, 285.2 86.14, 289.94 80.96 M279.94 98.15 C282.57 94.91, 285.9 92.34, 288.86 87.12 M280.98 97.24 C283.18 93.71, 285.96 90.9, 289.78 87.27 M286.59 96.69 C287.62 96.34, 287.71 95.19, 289.06 94.1 M286.95 96.85 C287.33 96.35, 287.85 95.78, 289.32 93.73" stroke="#be4bdb" stroke-width="0.5" fill="none"></path><path d="M0.71 0.85 C71.27 -0.09, 139.11 -1.33, 287.04 0.59 M0.32 0.58 C95.62 2.14, 191.2 0.88, 286.48 0.44 M286.93 -0.74 C287.84 32.37, 286.2 65.46, 288.11 96.92 M287.86 -0.69 C288.18 20.61, 288.47 41.09, 287.51 97 M287.27 97.91 C211.15 94.54, 136.43 96.26, 0.47 95.55 M287.41 97.27 C195.78 97.22, 104.46 96.46, 0.15 96.91 M1.61 98.67 C-1.08 59.44, 1.29 22.86, 1.41 -1.52 M0.74 97.72 C-0.88 63.89, 0.14 32.17, 0.32 -0.89" stroke="#000000" stroke-width="1" fill="none"></path></g><g transform="translate(493.06457528520787 105.5) rotate(0 100.80000305175781 12.5)"><text x="0" y="0" font-family="Virgil, Segoe UI Emoji" font-size="20px" fill="#000000" text-anchor="start" style="white-space: pre;" direction="ltr" dominant-baseline="text-before-edge">Dependency Injection</text></g><g stroke-linecap="round" transform="translate(743 69.5) rotate(0 72 48.5)"><path d="M0 0 C0 0, 0 0, 0 0 M0 0 C0 0, 0 0, 0 0 M-0.26 7.14 C0.87 5.36, 2.87 3.56, 5.4 0.47 M-0.44 6.54 C1.46 5.12, 2.58 3.46, 5.23 0.35 M0.3 11.05 C1.57 9.41, 5.57 4.86, 10.58 1.1 M0.84 12.77 C3.8 7.68, 7.96 4.04, 10.61 -0.32 M0.49 16.61 C3.91 16.26, 7.56 12.76, 13.74 1.06 M0.51 18.83 C5.38 13.1, 10.59 6.24, 15.97 0.17 M2.12 22.3 C7.76 14.63, 13.73 7.01, 21.78 0.46 M1.01 24.32 C7.24 16.73, 12.09 9.04, 21.1 0.79 M0.58 29.2 C8.11 20.12, 18.69 9.66, 24.53 1.92 M0.29 29.61 C5.55 24.27, 12.47 15.93, 25.36 -0.42 M-0.14 38.46 C10.26 24.3, 23.61 10.19, 33.3 1.61 M0.5 37.11 C6.72 27.71, 15.03 20.28, 31.54 0.22 M-0.67 43.53 C11.26 30.71, 22.95 14.25, 38.34 -0.14 M0.26 42.13 C12.48 27.56, 25.62 12.17, 37.7 -0.61 M-1.56 48.8 C11.01 36.11, 20.47 26.85, 42.78 1.48 M-0.07 48.45 C8.22 38.85, 17.52 28.54, 42.63 -0.92 M2.03 54.63 C11.82 37.78, 26.11 25.92, 48.05 2.07 M0.31 55.4 C16.49 35.48, 32.87 17.78, 47.7 -0.08 M1.73 59.65 C17.02 41.69, 35.52 19.49, 51.85 0.3 M0.55 61.22 C18.64 38.98, 38.61 16.67, 52.33 -0.45 M1.28 65.84 C13.77 52.21, 28.7 35.88, 57.55 0.27 M-1.07 68.15 C14.49 51.9, 27.85 33.45, 57.84 -0.04 M1.22 73.08 C19.27 50.21, 40.46 27.88, 64.13 -0.22 M0.01 72.02 C23.88 45.6, 47.8 18.31, 62.89 -0.2 M1.62 79.75 C18.12 59.74, 37.31 37.21, 67.65 0.69 M0.86 78.86 C14.45 62.34, 29.2 44.3, 69.36 -0.21 M1.38 85.74 C20.73 61.87, 42 37.15, 75.18 1.19 M0.76 84.95 C24.41 58.19, 47.85 31.55, 73.8 -1.02 M1.6 92.77 C19.56 67.42, 36.94 44.72, 78.18 -1.86 M0.13 91.23 C16.07 71.26, 33.84 53.18, 79.27 0.16 M1.63 98.76 C21.49 73.13, 42.99 45.95, 86.54 -0.67 M0.97 96.57 C23.16 70.57, 45.91 44.8, 84.82 0.2 M3.63 96.03 C28.93 70.25, 48.01 48.5, 89.91 1.9 M4.95 98.16 C28.91 70.54, 51.18 44.95, 89.33 -0.66 M12.87 95.77 C38.09 65.25, 64.12 36.26, 95.72 0.53 M10.11 96.88 C39.98 62.8, 69.13 29.13, 94.98 -0.42 M16.84 98.22 C41.59 72.3, 64.59 43.65, 102.58 1.84 M15.52 97.59 C36.03 74.17, 55.28 49.89, 101.09 0.04 M19.98 97.05 C41.13 75.44, 59.04 53.83, 106.21 0.64 M22.41 96.49 C40.05 75.86, 56.61 56.79, 105.59 -0.77 M27.09 95.62 C45.27 77.41, 61.14 57.21, 112.9 -1.69 M27.09 97.46 C50.3 70.53, 73.73 43.02, 110.86 0.48 M31.29 97.35 C65.52 58.24, 96.63 19.35, 116.78 -0.2 M31.36 97.43 C62.45 62.92, 93.17 26.18, 116.54 0.98 M37.44 97.99 C58.38 71.18, 81.91 47.52, 120.55 0.23 M37.4 96.68 C64.82 67.66, 91.68 36.42, 122.69 -0.63 M42.11 95.96 C74.12 62.74, 105.55 27.19, 126.18 1.43 M42.21 96.21 C63.04 71.98, 85.68 46.49, 125.98 0.38 M48.95 96.63 C68.04 71.25, 89.03 49.2, 134.19 -0.97 M48.47 98.1 C65.15 77.65, 81.64 58.6, 133.43 0.88 M52.71 98.68 C76 68.1, 101.96 40.68, 139.12 -1.26 M52.99 96.83 C71.4 77.93, 87.19 56.73, 137.34 0.25 M58.61 98.36 C74.35 76.37, 94.04 58.04, 141.43 -1.32 M57.58 97.62 C90.34 59.86, 121.77 23.57, 143.67 -0.31 M62.33 95.85 C86.67 74.83, 106.89 47.01, 145 3.96 M63.49 97.77 C84.88 72.06, 104.49 49.48, 147.01 2.88 M69.41 95.55 C98.01 62.66, 126.24 28.19, 147.65 9.98 M68.28 97.06 C99.42 64.06, 128.64 29.23, 147.58 8.25 M74.54 97.11 C102.63 64.02, 131.09 33.3, 144.56 14.17 M73.6 97.75 C96.59 71.43, 117.34 46.14, 146.07 14.84 M80.29 96.07 C97.82 74.59, 118.73 52.75, 148.33 19.42 M79.37 97.26 C103.96 70.15, 126.3 42.29, 146.2 20.67 M85.83 98.35 C105.95 76.58, 124.35 53.75, 147.64 26.6 M84.96 97.72 C97.46 82.9, 111.15 67.63, 146.91 27.33 M92.17 97.35 C104.15 82.6, 116.52 68.98, 146.62 33.57 M89.94 97.05 C109.04 76.65, 126.24 55.63, 146.08 32.06 M95.68 96.26 C109.47 79.94, 125.38 60.13, 147.49 39.81 M95.99 98.35 C108.61 81.36, 123.11 65.16, 146.71 38.33 M101.94 96.35 C116.03 80.2, 132.03 61.14, 147.34 44.98 M100.32 96.21 C116.06 78.98, 131.57 62.03, 146.17 45.5 M107.22 99.31 C122.1 79.94, 135.47 63.5, 147.34 49.93 M105.55 98.07 C118.9 82.19, 132.58 66.62, 146.89 49.82 M112.44 95.54 C124.75 82.39, 136.7 67.6, 146.28 59.05 M111.13 96.54 C123.79 85.09, 134.58 71.85, 146.26 57.85 M116.54 98.49 C123.13 89.6, 134.13 79.04, 145.73 65.34 M117.26 96.79 C124.99 88.73, 131.97 79.49, 145.46 63.51 M122.5 96.94 C125.67 92.7, 131.77 87.61, 146.88 68.93 M122.25 96.82 C128.16 90.54, 133.27 86.1, 146.55 69.68 M126.69 97.34 C130.86 91.15, 135.44 85.37, 145.14 73.71 M126.48 96.88 C134.04 90.26, 141.41 82.18, 146.7 74.83 M132.9 96.1 C137.99 89.39, 141.6 85.14, 145.54 82.31 M133.8 97.78 C136.84 93.3, 139.81 90.65, 145.98 81.05 M137.79 97.73 C140.81 94.32, 144.75 88.4, 146.2 88.17 M137.58 97.93 C139.6 94.94, 142.83 92.36, 146.28 88.15 M143.75 96.81 C144.17 95.85, 145.23 94.55, 145.96 93.61 M143.51 97.03 C144.47 95.91, 145.66 94.7, 146.29 93.83" stroke="#228be6" stroke-width="0.5" fill="none"></path><path d="M0.04 1.53 C32.6 -1.82, 66.41 -1.71, 144.84 0.71 M-0.61 -0.16 C52.83 -0.89, 104.66 -0.54, 143.01 -0.68 M145.32 -0.55 C145.56 29.2, 143.07 58.7, 145.21 95.65 M143.9 0.31 C144.65 32.65, 144.67 66.32, 144.17 96.12 M145.44 97.12 C110.61 95.87, 74.95 95.17, 0.84 97.35 M144.92 96.14 C90.45 98.14, 34.85 96.89, -0.4 97.11 M-0.64 96.75 C1.53 74.42, -1.17 53.83, -1.94 0.11 M0.67 96.02 C1.07 69.33, 0.43 43.27, -0.32 -0.64" stroke="#000000" stroke-width="1" fill="none"></path></g><g transform="translate(797.0416660308838 105.5) rotate(0 17.95833396911621 12.5)"><text x="0" y="0" font-family="Virgil, Segoe UI Emoji" font-size="20px" fill="#000000" text-anchor="start" style="white-space: pre;" direction="ltr" dominant-baseline="text-before-edge">Init</text></g><g stroke-linecap="round" transform="translate(210.41528240674518 384.75) rotate(0 95 48.5)"><path d="M0 0 C0 0, 0 0, 0 0 M0 0 C0 0, 0 0, 0 0 M-0.33 5.83 C0.78 5.19, 2.14 3.87, 4.51 -0.03 M-0.2 6.39 C1.76 3.96, 3.39 1.91, 4.72 0.29 M0.43 13.06 C3.1 7.39, 9.01 2.31, 10.7 1.48 M0.14 11.55 C3.36 7.98, 5.96 4.73, 10.11 0.29 M0.22 20.16 C6.66 12.93, 8.8 5.41, 16.26 1.18 M0.76 19.06 C4.89 13.28, 10.47 6.41, 16.21 1.2 M1.54 24.43 C8.77 14.98, 13.65 9.55, 22.13 -1.15 M1.15 23.23 C5.68 18.52, 9.45 12.93, 20.8 0.74 M0.75 30.71 C7.35 22.53, 11.91 18.38, 27.63 0.88 M0.75 30.13 C6.27 23.25, 14.99 15.24, 25.98 -0.61 M0.82 38.27 C9.61 26.93, 17.27 16.9, 33.65 0.03 M-0.2 37.24 C9.82 23.95, 20.57 12.89, 32.87 -0.82 M0.18 43.68 C9.63 34.09, 15.76 26.43, 38.05 0.19 M0.51 42.97 C9.98 31.95, 17.76 22.76, 36.33 0.16 M-0.59 49.38 C16.49 32.09, 30.77 14, 43.64 -1.37 M-0.7 49.21 C14.43 32.18, 28.93 15.61, 43.41 -0.28 M0.52 54.68 C13.56 43.19, 23.42 27.32, 45.6 -1.64 M0.46 55.45 C12.23 41.77, 23.02 28.64, 48.25 0.93 M-1.62 60.14 C16.46 45.31, 29.04 26.8, 51.44 -1.61 M-0.84 61.11 C20.61 37.7, 39.2 15.02, 52.43 -0.1 M0.05 66.58 C13.87 47.52, 33.26 28.37, 56.38 2.13 M-0.88 67.65 C15.87 48.5, 33.73 27.45, 57.97 0.1 M-0.57 71.67 C17.19 54.75, 30.16 37.38, 63.36 -0.4 M0.84 73.14 C18.17 50.37, 38.53 28.13, 63.67 -0.28 M-1.97 80.52 C16.7 62.1, 33.45 44.82, 70.41 -0.19 M0.75 79.89 C25.95 48.6, 54.18 17.7, 68.03 0.03 M2.23 86.66 C24.07 56.32, 52.62 28, 74.67 1.06 M0.02 85.5 C22.49 60, 44.06 34.95, 73.66 0.69 M0.71 90.45 C18.98 69.58, 38.4 49.92, 79.72 -0.77 M0.4 92.24 C31.44 56.97, 61.91 22.79, 80.2 0.11 M2.4 95.31 C20.69 71.62, 44.26 45.14, 83.61 -1.89 M-0.32 97.36 C27.29 65.33, 54.97 34.19, 84.69 -1.22 M7.19 96.05 C32.59 66.59, 59.4 33.44, 90.26 1.74 M4.8 96.45 C25.01 74.09, 44.8 52.33, 90.52 -0.34 M12.06 97.26 C42.73 58.78, 76.47 24.24, 97.4 0.64 M11.54 97.82 C32.11 71, 54.19 46.54, 95.81 -0.53 M16.32 97.56 C34.56 77, 50.37 55.62, 100.01 0.23 M16.18 97.8 C49.37 61.83, 81.43 24.18, 100.31 1.04 M22.27 95.87 C52.75 61.08, 84.79 20.29, 106.23 -0.96 M21.61 97.09 C53.97 60.83, 87.4 24.64, 105.84 -1.31 M28.65 97.8 C50.5 71.96, 73.49 42.93, 112.85 1.12 M27.3 98.09 C44.3 76.35, 63.69 55.3, 111.15 0.55 M32.57 95.92 C60.01 62.52, 92.57 31.76, 116.57 -0.99 M32.66 97.29 C51.06 75.11, 72.33 50.18, 115.71 0.64 M38.95 96.09 C69.49 57.8, 101.61 21.23, 120.7 -1.64 M36.95 96.57 C65.37 62.12, 96.45 28.25, 121.87 -0.5 M42.47 97.75 C76.7 57.24, 110.17 18.03, 127.87 0.5 M42.71 97.55 C60.33 76.63, 79 55.51, 126.08 -0.26 M48.98 96.27 C71.3 69.64, 93.13 43.32, 133.38 -0.56 M47.65 96.97 C80.03 59.91, 112.96 22.75, 131.59 -0.83 M53.46 95.21 C74.97 73.66, 96.62 49.56, 138.56 0.26 M54.06 96.97 C83.88 63.15, 113.96 28.55, 138.41 0.13 M57.45 96.7 C88.79 64.57, 117.53 29.96, 144.74 -0.63 M58.71 96.5 C84.94 65.68, 113.11 34.56, 142.68 -0.17 M62.98 97.69 C89.52 67.8, 111.55 41.79, 146.68 -1.16 M64.27 97.62 C93.16 64.67, 121.13 30.45, 148.59 -0.3 M70.03 96.29 C96.74 65.8, 122.21 36.61, 154.55 -1.3 M69.2 96.86 C98.09 61.92, 128.2 28.01, 153.78 -0.26 M73.78 96.86 C98.92 71.32, 123.31 40.76, 159.28 -0.72 M74.52 98.33 C102.03 65.79, 130.41 33.09, 159.26 -0.17 M81.37 96.49 C108.11 64.15, 133.86 35.79, 162.58 1.5 M78.96 97.25 C102.87 68.21, 128.67 41.25, 164.8 0.13 M86.57 97.67 C107.59 71.5, 129.72 45.09, 170.33 1.18 M85.2 96.63 C107.86 70.23, 131.12 44.19, 168.84 0.38 M89.1 95.25 C109.67 75.94, 126.83 55.15, 174.55 1.37 M89.58 97.31 C117.01 67.19, 144.31 36.08, 175.91 0.23 M94.04 96.85 C119.2 69.27, 143.51 39.65, 178.8 -1.33 M95.03 98.33 C115.81 73.12, 136.84 51.07, 180.51 0.67 M99.79 97.08 C130.17 62.9, 158.59 29.24, 184.16 -0.53 M101.44 96.22 C121.68 75.19, 142.05 50.7, 186.54 0.26 M105.51 97.93 C124.92 75.35, 143.26 54.33, 190.63 -1.61 M106.62 97.44 C128.65 71.44, 151.89 43.76, 191.2 0.54 M111.02 99.01 C133.01 71.26, 151.61 47.47, 189.18 5.25 M112.66 97.61 C130.84 74.98, 149.26 53.95, 190.49 7.18 M116.28 97.94 C142.38 70.37, 167.05 39.64, 189.56 14.37 M116.87 97.96 C141.38 68.27, 167.91 39.29, 189.48 12.14 M121.3 96.59 C142.13 76.48, 160.84 52.38, 190.55 19.41 M122.14 96.59 C143.63 71.68, 165.42 45.92, 190.04 18.67 M125.6 97.46 C151.68 68.34, 174.82 41.79, 189.27 26.73 M127.92 96.89 C152.59 68.16, 178.29 38.9, 190.63 25.65 M132.12 97.92 C152.89 74.88, 170.19 53.3, 190.46 32.39 M132.55 96.78 C149.12 79.53, 163.88 62.21, 191.02 30.61 M138.7 98.6 C152.57 79.83, 171.46 59.75, 191.93 36.48 M138.21 97.19 C152.79 80.38, 167.39 62.51, 190.24 37.13 M141.95 97.63 C153.08 86.8, 164.16 72.75, 189.83 44.21 M143.31 97.27 C155.23 82.95, 168.16 68.87, 189.28 43.9 M148.78 99 C161.28 81.56, 174.23 68.52, 191.36 48.41 M149.42 96.83 C160.14 84.84, 169.83 72.58, 190.31 48.33 M152.23 98.86 C166.89 84.84, 176.75 72.21, 189.52 54.16 M153.63 97.63 C165.11 83.95, 176.71 72.43, 190.88 55.15 M159 97.83 C168.56 84.58, 180.39 74.31, 190.34 61.81 M159.5 97.75 C168.61 87.57, 175.53 77.22, 191.62 60.49 M165.34 95.3 C170.99 86.47, 182.29 78.55, 192.37 67.32 M165.45 96.92 C175.55 85.53, 183.54 74.19, 191.2 68.24 M168.49 97.79 C174.11 90.25, 179.27 86.8, 189.94 73.3 M169.66 96.87 C176.03 90.24, 179.74 84.42, 190.05 74.11 M174.66 97.18 C180.18 93.21, 185.71 83.87, 191.86 77.55 M174.5 96.68 C178.38 91.74, 183.1 87.67, 190.54 80.26 M181.9 98.64 C183.22 95.35, 185.48 90.5, 190.22 87.27 M181.17 97.14 C182.72 94.4, 185.42 90.5, 190.24 86.65 M185.62 97.76 C186.56 95.41, 188.83 95.03, 190.2 91.04 M185.12 97.24 C187.46 95.23, 189.02 93.6, 190.61 91.46" stroke="#fab005" stroke-width="0.5" fill="none"></path><path d="M0.96 -0.01 C68.64 -1.08, 134.9 1.27, 189.22 -0.18 M-0.94 -0.71 C57.29 0.02, 112.71 -1.2, 190.52 0.39 M191.17 0.84 C190.27 26.99, 190.51 59.32, 191.19 98.98 M190.31 0.89 C191 20.37, 190.94 40.49, 190.82 96.39 M188.05 97.34 C128.13 96.31, 62.3 97.31, -1.79 97.24 M190.83 96.24 C128.76 97.14, 67.03 96.49, -0.35 96.03 M1.13 95.29 C-0.26 68.21, -2.11 42.39, -0.27 0.95 M0.67 96.88 C-0.5 75.35, -1.14 56.22, 0.46 -0.53" stroke="#000000" stroke-width="1" fill="none"></path></g><g transform="translate(252.62361446851276 420.75) rotate(0 52.79166793823242 12.5)"><text x="0" y="0" font-family="Virgil, Segoe UI Emoji" font-size="20px" fill="#000000" text-anchor="start" style="white-space: pre;" direction="ltr" dominant-baseline="text-before-edge">Compilation</text></g><g stroke-linecap="round"><g transform="translate(13.76569089920099 364.6022058226147) rotate(0 183.05733284373972 0.25544634319015813)"><path d="M0.13 -0.77 C105.48 0.71, 212.91 -0.1, 365.96 0.88 M0.55 0.57 C127.06 1.43, 254.59 1.86, 365.98 -0.22" stroke="#000000" stroke-width="1" fill="none"></path></g></g><mask></mask><g stroke-linecap="round"><g transform="translate(454.41528240674506 364.18686723202904) rotate(0 220.04399127613078 -0.48070099983476666)"><path d="M-0.62 -0.97 C153.75 -0.62, 306.29 -0.27, 440.71 0.47 M0.46 -0.06 C90.3 -1.67, 181.09 -1.95, 439.82 -0.45" stroke="#000000" stroke-width="1" fill="none"></path></g></g><mask></mask><g transform="translate(136.49099767092423 326.25) rotate(0 60.57500076293945 12.5)"><text x="0" y="0" font-family="Virgil, Segoe UI Emoji" font-size="20px" fill="#000000" text-anchor="start" style="white-space: pre;" direction="ltr" dominant-baseline="text-before-edge">Compile Time</text></g><g transform="translate(637.4072876426039 326.25) rotate(0 36.775001525878906 12.5)"><text x="0" y="0" font-family="Virgil, Segoe UI Emoji" font-size="20px" fill="#000000" text-anchor="start" style="white-space: pre;" direction="ltr" dominant-baseline="text-before-edge">Runtime</text></g><g stroke-linecap="round" transform="translate(453.7961216734893 384.75) rotate(0 29.5 48.5)"><path d="M0 0 C0 0, 0 0, 0 0 M0 0 C0 0, 0 0, 0 0 M-0.73 6.01 C2.19 4.08, 3.9 2.25, 4.98 0.46 M-0.53 6.32 C1.48 4.47, 2.29 3.31, 5.24 0.07 M0.2 13.56 C3.37 9.82, 4.88 4.98, 9.65 0.05 M-0.39 12.36 C2.98 8.33, 5.3 6.03, 11.32 0.67 M0.52 19.29 C5.28 14.94, 10.39 9.37, 16.85 0.4 M0.47 19.32 C6.03 11.2, 12.17 5.19, 15.79 1.18 M1.14 23 C3.9 18.79, 11.57 14.43, 19.55 1.01 M-0.2 24.89 C6.45 15.85, 13.5 8.62, 21.37 0.7 M1.39 31.07 C5.24 23.68, 10.65 18.33, 25.54 -1.35 M-0.26 29.58 C9.43 18.54, 19.75 7.85, 26.94 0.83 M1.5 37.01 C9.86 25.61, 20.63 14.48, 32.62 -0.36 M0.72 36.16 C5.2 29.5, 12.23 22.03, 32.47 0.77 M1.31 42.46 C10.68 29.33, 21.84 16.11, 37.78 2.22 M-0.41 42.43 C9.87 31.54, 18.03 21.27, 37.11 0.81 M0.99 47.69 C14.91 33.88, 28.64 14.86, 43.11 0.82 M0.77 48.78 C11.39 33.9, 23.86 20.54, 42.58 0.66 M-1.63 52.7 C16.33 33.02, 33.07 15.45, 49.28 0.46 M1.01 55.27 C13.53 39.62, 26.39 23.62, 47.1 0.83 M-1.7 59.52 C22.36 36.91, 40.62 12.14, 53.45 0.95 M-0.71 61.03 C13.5 46.35, 26.59 30.81, 52.76 -1.05 M-2.01 69.3 C12.55 54.32, 25.42 35.84, 58.72 -0.71 M-0.42 67.27 C20.61 41.96, 43.17 17.37, 57.47 1.1 M-0.28 72.8 C14.7 57.65, 30.16 41.46, 62.09 0.2 M0.04 72.93 C16.79 52.96, 34.67 32.05, 62.37 2.46 M1.53 79.06 C22.23 56.44, 40.15 32.22, 62.54 7.45 M-0.85 79.28 C19.65 56.38, 38.1 34.78, 62.36 7.61 M0.53 86.34 C18.3 64.31, 35.19 41.41, 62.86 15.58 M-0.47 85.97 C14.54 67.29, 29.55 50.5, 61.45 14.31 M0.33 90.55 C14.13 74.82, 25.13 62.23, 63.29 21.36 M0.82 91.43 C18.16 69.56, 38.63 48.16, 60.8 19.99 M-1.02 95.47 C20.07 74.48, 40.2 51.23, 61.99 25.01 M0.06 96.14 C22.28 72.87, 42.74 48.96, 60.73 26.97 M5.63 99.09 C23.02 76.29, 43.46 53.25, 59.84 32.77 M5.89 97.02 C19.16 81.57, 32.23 67.52, 61.93 32.12 M12.77 98 C22.69 83.27, 35.21 68.62, 63.1 37.5 M11.18 96.82 C22.11 83.69, 33.95 70.63, 61.63 39.45 M15.37 97.58 C29.91 83.04, 38.37 70.39, 62.08 46.44 M15.68 98.4 C33.97 78.39, 50.2 57.96, 60.72 44.91 M21.6 96.4 C39.18 77.81, 51.19 61.39, 61.84 49.84 M21.21 96.05 C32.81 83.25, 43.75 70.86, 61.9 51.01 M28.22 98.47 C37.38 82.06, 53.02 70.41, 62.87 55.45 M26.52 97.91 C38.62 83.76, 49.35 70.73, 60.9 56.44 M32.6 95.61 C38.22 89.66, 45.79 80.5, 62.45 61.61 M31.73 97.25 C44.47 84.35, 55.97 71.6, 61.2 63.13 M36.06 95.72 C43.56 93.25, 49.39 84.76, 60.03 67.62 M37.24 96.85 C45.03 89.46, 51.76 81.28, 61.96 69.6 M43.9 97.1 C46.19 90.82, 53.1 84.96, 62.52 74.69 M42.1 96.34 C48.39 90.63, 54.34 84.23, 60.78 76.06 M48.75 96.8 C52.94 92.71, 55.75 89.11, 61.02 80.58 M46.96 96.52 C51.56 92.92, 56.42 87.57, 60.84 81.97 M54.17 96.88 C56.86 93.8, 57.73 91.33, 61.5 88.05 M54.09 96.8 C56.3 94.46, 58.02 90.85, 61.26 88.37 M58.94 97.13 C59.64 96.25, 60.68 95.03, 61.44 93.25 M58.42 97.25 C59.44 95.94, 60.43 94.94, 61.93 93.53" stroke="#be4bdb" stroke-width="0.5" fill="none"></path><path d="M-0.78 -0.18 C13.98 1.09, 29.04 -2.22, 57.58 1.76 M0.52 0.39 C23.08 -0.18, 45.31 0.76, 59.42 0.31 M60.19 1.98 C57.53 20.99, 59.73 41.14, 60.77 98.28 M59.82 -0.61 C59.92 32.7, 60.15 64.75, 59.17 97.93 M57.21 97.24 C47.09 97.3, 34.02 98.44, -1.52 98.48 M58.65 96.03 C39.71 97.62, 21.38 97.33, -0.85 97.29 M-0.27 97.95 C-1.09 75.72, -0.73 52.52, -0.23 0.57 M0.46 96.47 C-0.54 75.61, 1.01 54.93, -0.2 0.06" stroke="#000000" stroke-width="1" fill="none"></path></g><g transform="translate(470.0461216734893 420.75) rotate(0 13.25 12.5)"><text x="0" y="0" font-family="Virgil, Segoe UI Emoji" font-size="20px" fill="#000000" text-anchor="start" style="white-space: pre;" direction="ltr" dominant-baseline="text-before-edge">DI</text></g><g stroke-linecap="round" transform="translate(518.4152824067451 384.75) rotate(0 72 48.5)"><path d="M0 0 C0 0, 0 0, 0 0 M0 0 C0 0, 0 0, 0 0 M0.32 6.24 C2.25 4.22, 3.82 1.87, 4.68 -0.2 M0.07 6.05 C1.18 4.6, 3.31 2.35, 4.96 0.55 M0.34 13.34 C1.55 8.75, 4.72 5.62, 9.89 -1.33 M0.22 11.41 C3.3 8.28, 7.6 4.99, 10.66 -0.43 M0.42 20.29 C3.98 16.37, 7.62 10.88, 17.3 1.24 M0.07 18.14 C4.62 13.69, 9.06 8.67, 14.96 0.27 M-1.03 24.55 C8.94 17.54, 13.09 8.43, 21.79 -1.33 M-0.55 23.81 C6.79 16.19, 14.56 8.49, 20.5 0.11 M-0.59 30.56 C7.82 21.44, 17.25 7.87, 27.84 1.9 M-0.29 30.25 C10.5 19.34, 21.49 7.43, 26.29 0.31 M0.09 36.86 C10.5 25.75, 19.64 14.18, 29.94 0.74 M-1.15 36.89 C7.69 27.15, 17.32 18.01, 32.07 -0.04 M-0.98 43.06 C12.25 27.2, 28.75 12.33, 35.8 -0.18 M0.73 42.16 C13.31 27.12, 27.03 12.7, 37.22 0.28 M0.64 50.35 C13.15 32.7, 26.81 19.51, 42.34 0.96 M-0.74 48.14 C11.4 34.71, 24.51 21, 43.19 -0.05 M-0.94 52.58 C9.43 43.36, 23.47 31.18, 47.08 -0.57 M0.14 54.61 C12 38.96, 24.58 25.94, 48.35 -0.51 M1.51 60.57 C17.75 39.11, 36.54 21.39, 52.13 -1.72 M-0.21 61.43 C14.56 44.41, 29.02 26.72, 52.44 0.54 M-0.37 69.17 C11.63 51.81, 24.79 38.43, 59.58 0.67 M-0.95 66.61 C14.16 50.77, 27.51 35.75, 57.5 0.25 M0.2 73.84 C14.69 59, 27.45 40.3, 63.44 0.15 M-0.55 72.89 C17.36 52.08, 35.63 33.37, 64.19 0.62 M1.8 81.18 C25.07 50.18, 54.24 16.36, 69.14 1.02 M0.32 79.39 C25.02 51.35, 51.89 20.41, 68.78 0.84 M0.18 86.02 C24.37 54.13, 53.11 26.2, 73.36 0.58 M-0.44 84.61 C19.35 62.39, 39.21 39.95, 73.54 0.61 M1.63 89.73 C21.09 67.59, 44.9 42.7, 79.58 1.51 M-0.42 91.9 C29.36 58.96, 56.61 23.97, 79.58 0.53 M0.92 96.51 C23.04 72.45, 43.13 48.18, 85.94 -1.89 M0.67 97.68 C34.19 59.94, 67.58 20.28, 85.37 -0.6 M4.03 97.69 C27.93 69.83, 48 45.55, 88.7 0.67 M6.17 96.83 C32.24 67.62, 58.37 36.01, 89.53 0.58 M10.31 98.14 C39.77 62.63, 72.63 25.16, 94.2 -2.22 M10.11 97.09 C39.76 63.58, 69.75 30.15, 95.33 -0.66 M17.67 96.49 C31.82 77.58, 52 58.34, 102.26 0.59 M16.91 98.34 C44.7 64.16, 72.66 30.72, 101.54 -0.78 M23.26 95.45 C39.91 73.98, 62.15 49.78, 106.14 1.19 M21.47 96.96 C52.18 63.17, 84.32 26.55, 106.85 -0.68 M24.91 96.14 C50.13 72.12, 72.68 42.82, 111.98 0.87 M27.15 97.15 C51.83 67.79, 77.15 37.46, 110.78 0.69 M31.1 98.41 C64.73 59.68, 99.88 18.97, 118.07 1.22 M33.12 97.32 C51.65 76.89, 68.21 55.47, 115.43 0.4 M38.34 99.14 C60.26 73.5, 77.82 48.52, 121.56 0.65 M38.27 97.41 C66.05 65.48, 93.44 33.86, 121.68 0.17 M41.16 96.54 C62.69 73.26, 83.98 49.39, 127.22 1.01 M42.67 97.21 C64.44 74.02, 84.88 49.76, 126.34 -0.07 M49.52 96.51 C70.5 71.76, 90.71 46.19, 132.67 0.6 M47.39 97.76 C73.5 69.7, 97.06 42.05, 132.94 0.88 M54.74 96.89 C79.14 65.85, 108.96 33.1, 137.85 0.52 M54.01 97.62 C78.99 65.33, 106.64 35.56, 137.63 0.94 M58.96 97.82 C80.21 72.64, 100.04 46.13, 142.94 0.93 M58.42 96.31 C84.43 67.55, 110.17 39.11, 142.55 -1.01 M65.09 98.03 C90.88 66.97, 119.68 37.28, 147.85 1.7 M64.31 96.55 C88.1 70.22, 111.21 42.68, 145.81 2.51 M70.18 97.16 C94.26 69.38, 117.43 39.46, 144.75 7.66 M69.01 97.68 C87.09 77.2, 103.52 58.02, 147.5 8.95 M74.78 96.82 C92.05 78.36, 110.7 56.36, 147.49 14.37 M74.32 96.72 C96.89 73.12, 117.83 47.17, 145.55 14.47 M79.62 99.16 C103.67 68.76, 126.15 43.14, 145.62 21.53 M79.6 97.95 C104.58 68.91, 129.98 38.96, 147.24 19.38 M84.32 99.41 C108.1 70.23, 131.03 42.7, 145.13 27.5 M84.05 97.57 C103.98 74.05, 123.77 52.08, 146.4 25.75 M90.71 96.96 C108.29 72.46, 130.14 51.43, 145.71 34.33 M90.38 97.71 C101.56 82.15, 114.04 68.46, 146.16 32.41 M94.23 95.7 C109.63 82.5, 122.81 67.01, 145.52 38.38 M95.79 96.82 C115.21 74.32, 133.93 52.62, 146.13 38.61 M99.87 98.26 C109.28 87.12, 118.47 77.23, 147.84 46.86 M100.31 97 C113.55 82.92, 124.7 69.36, 146.6 44.62 M105.63 98.4 C120.4 81.8, 135.82 62.37, 148.41 48.87 M105.76 98.38 C119.85 81.51, 133.68 66.78, 146.28 49.78 M110.45 95.27 C123.98 87.67, 133.11 73.37, 146.83 55.74 M112.11 96.38 C124.01 81.97, 137.46 67.48, 147.2 56.88 M117.63 97.75 C124.13 88.07, 134.37 76.76, 145.86 64.09 M116.44 98.16 C125.69 86.25, 135.67 76.62, 146.49 64.22 M122.8 98.74 C126.6 90.88, 131.33 85.32, 146.14 68.36 M123.28 97.87 C128.66 89.51, 134.09 83.71, 146.52 68.26 M129.31 95.5 C136.85 89.76, 141.5 78.66, 146.87 75.44 M127.59 97.06 C132.91 90.4, 138.94 84.75, 146.14 75.14 M132.21 95.95 C137.85 91.54, 140.41 89.06, 147.16 81.64 M133.08 97.98 C137.52 92.11, 142.71 85.85, 147.39 81.83 M137.78 98.41 C140.81 94.78, 142.8 91.77, 147.09 87.27 M137.47 97.76 C140.42 93.95, 143.21 91.34, 147.09 87.51 M143.46 96.94 C144.23 95.97, 145.27 94.79, 146.3 93.74 M143.57 96.94 C144.4 95.92, 145.65 94.85, 146.02 94.06" stroke="#228be6" stroke-width="0.5" fill="none"></path><path d="M-0.06 1.41 C52.16 -1.76, 101.02 1.89, 145.83 -0.24 M-0.03 -0.35 C38 0.02, 78.24 -0.26, 143.09 0.42 M142.12 0.74 C144.9 37.91, 146.35 75.83, 144.78 98.18 M144.35 -0.16 C145.37 33.23, 144.96 69.33, 143.11 96.88 M144.52 97.53 C106.3 98.84, 67.29 98.65, 0.48 98.98 M143.84 97.86 C107.23 96.17, 68.33 95.89, -0.64 96.36 M-1.72 98.63 C-1.22 67.24, -0.1 35.36, -1.74 -0.71 M-0.89 96.29 C0.23 59.58, -0.64 23.64, 0.79 -0.77" stroke="#000000" stroke-width="1" fill="none"></path></g><g transform="translate(572.4569484376289 420.75) rotate(0 17.95833396911621 12.5)"><text x="0" y="0" font-family="Virgil, Segoe UI Emoji" font-size="20px" fill="#000000" text-anchor="start" style="white-space: pre;" direction="ltr" dominant-baseline="text-before-edge">Init</text></g><g stroke-linecap="round" transform="translate(15.999999999999886 384.75) rotate(0 95 48.5)"><path d="M0 0 C0 0, 0 0, 0 0 M0 0 C0 0, 0 0, 0 0 M-0.59 6.2 C1.66 4.96, 2.71 3.47, 5.25 0.36 M-0.11 6.64 C1.08 4.77, 3.22 2.64, 5.29 0.25 M0.56 11.73 C3.45 9.3, 5.69 5, 10.32 0.15 M-0.52 12.29 C2.14 10.07, 4.73 6.57, 10.5 0.29 M-0.67 18.99 C2.19 14.05, 7.19 9.88, 13.83 1.3 M-0.03 19.26 C4.67 12.27, 9.6 7.52, 16.02 0 M1.96 23.04 C7.54 18.22, 10.48 12.63, 20.76 -1.52 M-0.73 25.03 C7.52 16.98, 13.33 9.64, 20.87 -0.71 M-1.18 31.82 C7.35 20.32, 16.53 13.4, 27.4 -0.31 M-0.1 30.73 C8.07 20.25, 17.33 11.28, 26.07 0.65 M0.33 37.74 C9.97 26.87, 15.5 15.73, 33.74 -1.3 M-0.01 36.07 C8.79 24.84, 20.38 14.04, 32.86 -0.19 M1.34 42.5 C16.03 25.92, 26.5 9.56, 38.41 1.75 M-0.53 42.77 C8.55 31.36, 17.56 22.23, 36.76 -0.04 M-0.46 48.09 C12.78 34.23, 20.71 21.99, 42.27 0.31 M-0.53 49.06 C13.23 34.02, 27.38 16.26, 43.17 -1.13 M-1.67 54.13 C10.3 39.29, 24.12 26.13, 47.46 1.69 M1.23 55.49 C13.72 39.68, 27.29 22.57, 47.45 1.12 M1.89 60.67 C13.54 44.58, 28.25 25.52, 52.96 1.75 M0.22 61.15 C13.88 43.85, 28.87 29.41, 52.53 -0.84 M-1.89 65.52 C20.79 43.14, 39.47 22.47, 57.67 -0.35 M-0.95 67.53 C22.12 40.7, 44.27 15.33, 58.98 -0.42 M0.89 71.27 C24.45 45.19, 47.58 18.55, 63.95 -1.57 M0.89 72.96 C22.07 47.48, 44.91 22.67, 64.64 0.14 M-1.48 78.19 C26.68 50.12, 50.22 17.08, 68.7 -0.22 M-0.22 80.02 C13.45 62.49, 27.91 46.61, 68.67 0.05 M-1.44 83.65 C19.88 62.46, 40.82 37.01, 74.91 0.7 M0.63 84.41 C18.89 61.95, 39.13 40.23, 75.19 -0.97 M0.94 90.88 C33.51 54.77, 61.29 19.99, 78.73 0.18 M0.27 92.14 C25.14 63.28, 48.84 34.65, 79.34 -0.47 M-0.53 95.54 C29.16 65.94, 55.86 31.14, 85.04 -0.09 M0.05 97.67 C30.97 61.61, 62.47 26.68, 84.87 -0.17 M4.19 96.51 C34.59 67.7, 62.06 33.53, 90.48 -1.07 M6.24 97.03 C25.69 72.29, 47.4 48.53, 90.27 0.26 M11.2 96.56 C45.69 60.35, 78.14 18.58, 95.07 -1.64 M10.77 96.09 C34.45 69.32, 59.59 42.04, 96.33 0.3 M15.4 97.02 C48.12 60.79, 81.63 22.91, 101.2 0.06 M16.17 97.62 C33.49 77.39, 52.61 57.65, 100.25 0.76 M22.88 98.45 C45.35 70.73, 70.27 41.99, 105.26 -0.67 M20.86 97.46 C52.81 61.63, 83.79 26.9, 107.22 -1.05 M27.94 97.35 C51.75 66.78, 75.56 36.56, 112.67 -0.42 M26.27 97.68 C45.16 76.51, 62.6 56.89, 110.53 0.81 M30.66 96.84 C62.17 63.05, 91.1 29.08, 116.77 1.81 M31.41 96.74 C63.64 62.94, 93.59 26.36, 116.51 0.83 M37.99 95.36 C63.29 70.24, 86.49 38.46, 121.19 -0.52 M37.99 96.67 C62.38 68.11, 89.91 37.62, 121.87 0.44 M41.24 97.34 C68.05 66.99, 94.08 33.97, 128.21 -0.49 M42.98 97.17 C75.71 58.77, 107.48 21.56, 126.12 -0.52 M49.24 97.9 C71.72 68.5, 97.93 38.85, 131.62 1.69 M47.74 96.83 C78.92 63.57, 106.73 29.4, 133.49 -1.01 M53.83 97.52 C71.79 77.35, 93.18 52.68, 137.81 -0.63 M52.6 97.24 C81.61 64.61, 110.98 30.76, 138.01 0.48 M58.94 98.76 C83.25 67.02, 109.7 36.37, 143.32 -1.87 M57.95 98.18 C80.13 71.89, 99.85 49.43, 144.12 0.01 M66.17 96.91 C87.26 68.73, 115.28 38.63, 147.94 0.53 M64.82 97.73 C87.65 68.89, 110.69 42.14, 147.75 -0.59 M67.84 96.72 C92.07 70.24, 116.25 42.7, 152.2 0.69 M70 97.48 C96.06 66.26, 123.09 35.98, 152.94 0.36 M75.9 95.79 C96.12 71.86, 120.09 46.6, 158.52 1.11 M73.98 97.41 C97.01 69, 120.99 41.55, 158.91 -0.37 M78.25 97.54 C97.68 77.06, 116.45 56.2, 164.7 -0.78 M79.28 97.28 C105.59 68.21, 133.32 36.07, 164.66 -0.85 M85.12 98.13 C108.96 71.21, 128.2 44.26, 169.02 0.2 M83.89 97.08 C113.11 64.21, 142.28 31.93, 170.04 -0.75 M91.98 95.91 C108.5 77.25, 125.63 56.7, 175.78 -0.45 M90.15 96.88 C107.46 76.96, 124.71 56.73, 174.42 0.74 M94.54 98.11 C123.03 65.35, 149.89 35.54, 180.4 -0.14 M94.88 97.04 C118.24 69.96, 142.23 44.17, 179.68 0.15 M100.4 97.52 C123.3 69.42, 147.66 40.61, 186.94 1.45 M100.96 97.34 C118.91 77.22, 135.82 57.09, 184.89 -0.22 M108.03 99.17 C126.81 71.57, 152.41 43.91, 189.19 -0.89 M105.41 97.13 C127.81 72.46, 149.55 45.86, 191.35 0.98 M110.39 97.02 C140.62 64.41, 170.63 29.11, 190.31 7.5 M111.03 96.51 C137.27 67.47, 163.06 39.45, 191.3 6.97 M117.98 96.68 C132.63 82.12, 148.8 62.43, 190.28 12.77 M116.44 98.45 C134.82 76.07, 153.54 54.35, 189.4 12.98 M122.38 96.03 C139.73 76.73, 158.05 57.56, 191.76 17.89 M121.7 97.97 C139.39 77.79, 155.09 60.44, 189.59 18.97 M127.34 95.99 C145.5 77, 162.9 57.34, 189.05 26.23 M126.4 98.34 C151.11 69.74, 172.82 43.04, 190.12 25.75 M132.31 97.14 C149.56 81.08, 164.86 61.36, 188.97 29.05 M133.25 96.11 C145.91 84.73, 156.31 70.19, 191.45 29.92 M139.56 98.43 C151.85 80.18, 170.1 60.42, 191.95 38.17 M138.2 97.43 C155.42 77.04, 173.91 55.05, 191.34 36.99 M141.68 97.9 C154.08 86.97, 162.53 75.47, 188.92 45.4 M143.98 97.06 C160.32 77.45, 176.66 57.37, 190.81 44.3 M148.66 99.3 C161.33 85.63, 172.06 72.05, 189.63 47.48 M148.25 96.62 C158.45 86.91, 168.91 75.48, 190.51 48.41 M155.49 96.83 C167.55 79.12, 181.38 65.04, 189.06 57.06 M155.16 97.7 C162.82 87.13, 169.57 78.06, 190.07 55.55 M161.16 97.84 C171.91 85.85, 180.02 73.47, 190.26 60.04 M159.45 98.05 C170.44 86.23, 180.59 73.58, 191.08 61.48 M164.29 95.44 C175.53 87.57, 184.37 76.27, 191.43 66.39 M164.04 96.7 C174.33 85.49, 183.46 75.46, 191.13 67.67 M170.12 99.28 C173.89 91.13, 179.04 88.27, 188.87 75.45 M170.15 98.15 C175.41 92.94, 179.69 87.34, 190.81 73.2 M174.15 96.18 C180.08 90.31, 184.04 86.26, 191.25 78.96 M174.85 97.5 C180.39 90.65, 185.88 84.61, 191.03 79.15 M180.97 96.93 C183.02 92.35, 186.24 90.5, 191.59 85.97 M181.02 96.77 C184 93.06, 187.49 89.16, 189.65 86.03 M184.89 97.46 C186.04 96.31, 187.86 94.96, 190.53 91.07 M185.34 97.78 C186.82 96.25, 187.97 94.44, 190.54 91.25" stroke="#e64980" stroke-width="0.5" fill="none"></path><path d="M1.13 -0.11 C51.86 2.25, 104.13 1.19, 191.02 0.82 M-0.34 0.96 C51.77 -1.55, 101.8 -1.2, 189.38 -0.64 M191.93 1.03 C188.33 23.42, 187.76 47.45, 190.13 98.3 M189.8 0.24 C189.3 33.87, 189.08 66.08, 189.7 97.72 M190.36 98.01 C122.58 95.75, 58.57 96.53, -1.37 95.41 M189.49 96.76 C138.41 95.91, 86 94.68, 0 97.42 M-0.37 96.06 C-1.02 65.16, -1.59 33.03, -1.03 0.2 M-0.86 97.02 C-0.77 58.53, -1.66 21.21, -0.51 0.88" stroke="#000000" stroke-width="1" fill="none"></path></g><g transform="translate(59.20000076293934 408.25) rotate(0 51.79999923706055 25)"><text x="0" y="0" font-family="Virgil, Segoe UI Emoji" font-size="20px" fill="#000000" text-anchor="start" style="white-space: pre;" direction="ltr" dominant-baseline="text-before-edge">Annotation</text><text x="0" y="25" font-family="Virgil, Segoe UI Emoji" font-size="20px" fill="#000000" text-anchor="start" style="white-space: pre;" direction="ltr" dominant-baseline="text-before-edge">Processing</text></g></svg>