<?xml version="1.0" encoding="UTF-8" standalone="no"?>
<!-- Created with Inkscape (http://www.inkscape.org/) -->

<svg
   width="701.37335mm"
   height="125.93835mm"
   viewBox="0 0 701.37335 125.93835"
   version="1.1"
   id="svg677"
   inkscape:version="1.2.2 (b0a8486541, 2022-12-01)"
   sodipodi:docname="spring-runtime.svg"
   xmlns:inkscape="http://www.inkscape.org/namespaces/inkscape"
   xmlns:sodipodi="http://sodipodi.sourceforge.net/DTD/sodipodi-0.dtd"
   xmlns="http://www.w3.org/2000/svg"
   xmlns:svg="http://www.w3.org/2000/svg">
  <sodipodi:namedview
     id="namedview679"
     pagecolor="#ffffff"
     bordercolor="#666666"
     borderopacity="1.0"
     inkscape:showpageshadow="2"
     inkscape:pageopacity="0.0"
     inkscape:pagecheckerboard="0"
     inkscape:deskcolor="#d1d1d1"
     inkscape:document-units="mm"
     showgrid="false"
     inkscape:zoom="0.914906"
     inkscape:cx="1353.1445"
     inkscape:cy="417.52923"
     inkscape:window-width="3840"
     inkscape:window-height="2099"
     inkscape:window-x="2160"
     inkscape:window-y="872"
     inkscape:window-maximized="1"
     inkscape:current-layer="layer1" />
  <defs
     id="defs674" />
  <g
     inkscape:label="Layer 1"
     inkscape:groupmode="layer"
     id="layer1"
     transform="translate(277.52115,-37.958768)">
    <g
       stroke-linecap="round"
       transform="matrix(0.79375,0,0,0.79375,-275.97334,84.791999)"
       id="g314"
       inkscape:export-filename="spring-runtime.png"
       inkscape:export-xdpi="65.186386"
       inkscape:export-ydpi="65.186386">
      <path
         d="M 0,0 C 0,0 0,0 0,0 M 0,0 C 0,0 0,0 0,0 M 0.19,6.38 C 0.61,5.24 2.11,3.43 5.18,0.68 M -0.41,6.29 C 0.74,4.97 2,3.52 5.32,0.67 M 1.25,12.48 C 2.94,7.24 8.18,2.98 9.04,-0.33 M -0.12,11.99 C 2.8,8.12 7.02,4.94 9.93,0.21 M -0.4,20.23 C 4.61,12.22 13.6,5.76 17.56,0.22 M -0.66,18.41 C 5.39,12.58 10.22,5.82 14.99,1.03 M 0.49,25.12 C 6.95,16.55 11.25,11.07 21.48,1.07 M 0.53,23.5 C 8.91,15.28 16.53,5.66 21.62,-0.33 M 0.91,29.05 C 10.73,20.97 17.44,9.79 27.79,0.27 M 0.98,31.08 C 8.89,21.79 17.62,11.91 26.82,-0.28 M -0.25,37.07 C 11.47,23.81 25.57,8.5 31.53,-1.32 M 0.18,36.65 C 11.42,21.87 23.76,8.9 31.4,-0.04 M 0.43,44.49 C 9.41,30.25 19.37,21.92 36.45,0.6 M 0.88,41.81 C 15.29,25.9 29.47,10.07 36.94,-0.28 M -0.75,49.83 C 9.29,37.12 20.44,23.91 40.58,0.43 M -0.48,49.64 C 14.81,33.3 27.61,17.03 42.36,-1.08 M -1.7,54.19 C 11.98,43.77 19.25,31.52 49.31,-0.57 M 0.12,53.59 C 13.8,37.75 28.98,23.07 47.01,-0.68 m -48.5,62.7 C 16.92,40.8 30.13,24.57 52.94,0.31 M -0.64,60.68 C 15.41,43.26 29.56,26.92 53.25,0.6 M 0.56,68.5 C 22.52,42.95 42.5,15.89 59.72,-0.01 M 0.58,66.39 C 18.9,45.03 40.01,22.06 57.61,-0.42 M 1.22,72.49 C 16.76,57.44 28.88,37.66 65.45,0.25 M 0.11,72.02 C 18.52,51.1 37.68,29.29 63.31,0.31 M -0.27,79.48 C 22.8,51.83 46.01,21.68 70.52,0.45 M 0.64,79.2 C 14.56,63.17 28.87,45.08 69.37,-0.69 M 0.63,87.03 C 19.45,61.78 40.77,41.52 73.48,0.17 M 0.18,85.68 C 22.13,59.32 41.96,35.9 75.23,-0.37 M 0.91,91.44 C 31.5,56.11 63.02,20.79 80.1,-0.04 M 0.16,91.55 C 16.47,72.46 32.65,53.37 79.85,0.09 M 1.49,96.43 C 28.85,62.46 56.99,28.44 84.94,-0.04 M 0.98,96.41 C 29.07,61.92 59.33,28.12 84.24,-0.6 M 3.62,97.83 C 21.8,76.98 39.72,55.71 88.4,0.65 M 5.4,97.44 C 35.76,62.92 67.1,27.79 90.62,-0.71 M 12.61,98.34 C 30.31,73.19 53.8,47.19 94.27,1.48 m -83.9,95.2 C 31.63,71.95 53.32,45.69 95,-1.28 M 16.68,96.14 C 44.15,62.22 74.27,30.6 98.85,1.6 M 16.87,97.14 C 39.22,70.7 62.78,42.42 100.24,1.01 M 21.3,95.57 C 49.43,64.1 79.45,31.22 104.44,-1.47 M 22.23,97.88 C 53.01,60.21 83.38,24.86 106.69,-0.02 M 28.18,97.86 C 48.39,75.38 64.61,50.65 112.44,0.86 M 26.29,98.27 C 43.21,77.94 60.14,58.87 111.25,-0.86 M 30.92,97.79 c 33,-36.85 64.64,-73.94 85.35,-98.12 M 32.91,97.08 C 57.39,68.37 84.08,38.34 115.31,0.57 M 38,98.4 C 61.88,71.34 83.66,42.52 121.69,1.47 M 38.12,96.66 C 59.18,70.84 81.93,44.72 121.16,0.32 M 44.37,95.64 C 68.93,65.77 97.57,34.33 125.13,-0.85 M 43.72,96.09 C 65.47,70.45 88.38,45.83 127.31,0.88 M 46.53,97.13 C 67.19,76.98 87.15,54.18 132.63,1.41 M 47.33,97.38 C 69.92,70.32 93.13,44.12 133.47,-1.02 M 54.07,98.76 C 85.14,62.91 113.55,28.03 138.9,-0.55 M 54,96.54 C 81.65,64.35 112.29,29.26 136.64,-0.16 M 56.72,95.43 C 93.43,59.5 123.04,24.64 142.86,-0.35 M 58.34,97.82 C 84.83,68.93 109.49,38.57 142.68,0.28 M 63.96,97.72 C 79.85,79.75 95.53,57.71 146.7,2.27 M 64.05,96.79 C 96.87,58.16 130.33,21.58 148.43,0.89 M 68.03,98.6 C 99.09,62.09 132.27,22.23 155.47,-1.89 M 70.07,96.57 C 95.74,67.38 121,38.08 153.26,-0.83 M 74.87,98.84 C 95.32,73.35 116.09,48 160.13,-0.74 M 73.49,97.71 C 103.11,65.81 131.24,33.4 159.25,-0.28 M 78.46,97.95 C 99.99,76.81 117.82,54.33 165.1,-0.29 M 78.92,96.55 C 108.1,64.25 136.49,31.74 164.67,-0.64 M 85.14,99.13 C 105.15,74.76 126.94,50.05 171.35,2.08 M 84.9,96.71 C 109.37,70.5 133.38,41.86 170.18,-0.68 M 90.54,96.72 C 110.23,72.66 133.23,49.22 175.93,-1.7 M 89.79,97.9 C 113.66,70.58 136.87,43.48 174.35,0.34 m -77.7,96.5 C 124.31,65.07 150.42,34.01 179.05,0.31 M 94.9,97.19 C 116.11,74.94 135.45,52.18 179.79,0.9 m -78.45,95.24 c 28.2,-35.21 57.33,-66.58 86.31,-95.41 m -86.6,96.32 C 130.9,62.74 159.97,28.26 184.72,0.33 m -77.25,98.11 c 18.87,-27.75 44.61,-49.91 82.98,-98.9 M 105.7,96.59 C 136.05,63.66 165.57,28.06 191.11,0.98 M 112.43,97.42 C 139.74,67.04 168.69,33.49 191.6,7.58 M 111.54,97.67 C 141.32,62.42 173.26,26.8 190.3,6.14 M 117.21,97.35 C 133.72,77.95 149,62.15 192.14,12.13 m -74.6,85.97 c 20.02,-23.8 39.23,-46.01 71.98,-84.96 m -65.56,82.58 c 18.89,-20.8 37.67,-44.79 65.89,-75.58 m -68.24,77.59 c 24,-27.39 48.35,-53.53 68.18,-78.69 M 129.02,95.97 C 147.67,76.88 166.55,53.88 190.21,24 M 127.63,97.68 C 151.76,68.3 176.33,40.87 189.85,25.83 M 132.56,98.17 C 147.5,80.59 161.34,63.84 189.29,30.86 m -57.2,65.58 C 146.66,81.78 159.15,65.67 191.15,30.27 M 139.57,95.68 C 153.36,77.71 169.44,59.63 188.82,37.39 M 137.16,97.06 C 150.2,84.01 163.24,68.99 189.93,36.1 M 145.44,97.87 C 160.62,80.29 174.39,62.92 191.08,43.2 M 143.29,97.29 C 160.5,77.81 177.47,57.71 190.11,43.9 M 149.04,98.81 C 165.03,79.32 178.76,64.97 189.3,49.75 m -41,46.99 C 159.21,85.55 170.26,72.42 190.74,49.51 M 154.29,95.9 C 168.91,81.03 179.11,68 191.91,57.34 M 153.99,97.02 C 165,86.41 174.86,74.41 190.32,55.48 M 159.19,98.66 C 171.5,83.95 183.35,67.21 191.53,60.49 M 159.22,96.95 C 172.01,83.77 185.39,68.96 190.76,61.9 M 165.39,95.3 C 174.78,87.42 185.16,74.89 190,68.68 m -25.52,27.97 c 6.44,-6.87 13.5,-13.97 25.98,-29.04 m -19.19,29.9 c 4.78,-8.04 14.14,-17.14 20,-23.76 m -22.22,22.99 c 8.86,-8.38 17.45,-16.89 21.22,-23.64 m -16.78,21.98 c 5.62,0.11 8.57,-5.63 16.28,-16.23 m -14.25,17.61 c 4.66,-6.45 11.72,-11.69 14.32,-16.57 m -9.67,16.88 c 1.22,-1.8 5.44,-5.21 8.97,-11.25 m -8.32,11.45 c 1.99,-2.57 3.46,-5.39 10.02,-11.76 m -4.66,12.14 c -0.17,-0.79 1.08,-1.72 4.71,-6.24 m -5.74,6.56 c 1.65,-2 3.65,-3.7 5.57,-6.45"
         stroke="#fab005"
         stroke-width="0.5"
         fill="none"
         id="path310" />
      <path
         d="M 1.15,0.62 C 77.54,-0.59 152.42,-2.87 190.89,-0.67 M -0.33,-0.9 C 39.63,-2.03 81.11,-2.2 189.6,0.55 m 0.2,-2.2 c -0.71,29.85 0.11,54.41 -1.16,97.97 M 191,-0.17 c -1.45,25.09 -2.35,50.11 -1.92,97.16 m 0.59,-1.17 C 114.11,97.12 39.86,96.74 -1.19,95.81 m 190.58,0.76 C 135.2,94.85 78.48,95.24 0.8,97.33 M 0,96.39 C -1.18,74.17 0.68,53.89 0.45,0.38 M 0.34,97.39 C 1,69.19 1.8,41.49 0.3,-0.14"
         stroke="#000000"
         stroke-width="1"
         fill="none"
         id="path312" />
    </g>
    <g
       transform="matrix(0.79375,0,0,0.79375,-242.47048,113.367)"
       id="g318">
      <text
         x="0"
         y="0"
         font-family="Virgil, 'Segoe UI Emoji'"
         font-size="20px"
         fill="#000000"
         text-anchor="start"
         style="white-space:pre"
         direction="ltr"
         dominant-baseline="text-before-edge"
         id="text316">Compilation</text>
    </g>
    <g
       stroke-linecap="round"
       id="g324"
       transform="matrix(0.79375,0,0,0.79375,-283.91084,29.626374)">
      <g
         transform="translate(10.350408,49.352206)"
         id="g322">
        <path
           d="m -0.35,-1.1 c 75.98,0.74 151.67,3 367.3,1.76 M 0.17,-0.38 c 84.11,-0.99 168.6,-1.82 365.71,0.53"
           stroke="#000000"
           stroke-width="1"
           fill="none"
           id="path320" />
      </g>
    </g>
    <g
       stroke-linecap="round"
       id="g332"
       transform="matrix(0.79375,0,0,0.79375,-283.91084,29.626374)">
      <g
         transform="translate(451,48.936867)"
         id="g330">
        <path
           d="M -0.64,0 C 106.87,0.53 214.01,1.41 439.89,-0.18 M 0.35,0.22 C 105.1,-0.3 210.06,-0.23 440.17,-0.25"
           stroke="#000000"
           stroke-width="1"
           fill="none"
           id="path328" />
      </g>
    </g>
    <g
       transform="matrix(0.79375,0,0,0.79375,-179.86949,37.563874)"
       id="g338">
      <text
         x="0"
         y="0"
         font-family="Virgil, 'Segoe UI Emoji'"
         font-size="20px"
         fill="#000000"
         text-anchor="start"
         style="white-space:pre"
         direction="ltr"
         dominant-baseline="text-before-edge"
         id="text336">Compile Time</text>
    </g>
    <g
       transform="matrix(0.79375,0,0,0.79375,219.32032,38.357624)"
       id="g342">
      <text
         x="0"
         y="0"
         font-family="Virgil, 'Segoe UI Emoji'"
         font-size="20px"
         fill="#000000"
         text-anchor="start"
         style="white-space:pre"
         direction="ltr"
         dominant-baseline="text-before-edge"
         id="text340">Runtime</text>
    </g>
    <g
       stroke-linecap="round"
       transform="matrix(0.79375,0,0,0.79375,73.566045,84.791999)"
       id="g348">
      <path
         d="M 0,0 C 0,0 0,0 0,0 M 0,0 C 0,0 0,0 0,0 M 0.12,5.93 C 1.78,4.07 3.37,2.17 4.7,1.1 M -0.06,6.5 C 1.14,5.42 1.95,3.94 4.95,0.63 M -0.12,12.75 C 2.19,7.45 6.61,6.92 9.06,-1.46 M -0.37,11.31 C 1.96,9.83 4.86,5.73 11.02,-0.16 M -1,18.02 C 5.47,14.03 10.57,6.81 15.66,-0.67 M -1.04,18.32 C 5.77,11.97 11.43,5.26 15.11,-0.41 M 0.7,23.8 C 8.26,13.4 14.89,5.38 21.26,0.45 M 1,23.51 C 8.36,14.78 16.18,6.83 20.42,0.76 M 0.85,32.26 C 4.22,25.37 11.67,17.74 27.77,-0.8 M 0.43,30.83 C 6.79,23.36 12.47,16.2 26.08,0.96 M -2.23,35.53 C 7.93,28.99 15.28,19.66 31.34,0.8 M 0.35,36.2 C 8.4,28.29 16.83,18.67 32.2,0.23 M 0.47,40.76 C 9.46,31.31 21.29,18.85 37,0.72 M 0.56,42.69 C 10.47,32.06 19.09,22.43 36.02,1.22 M -0.93,49.14 C 15.02,29.68 34.64,9.78 42.28,1.37 M -1.09,48.97 C 8.96,38.22 17.25,29.17 41.54,0.29 M -0.38,53.27 C 12.46,41.73 22.2,28.73 48.23,-1.22 M 0.25,55.17 C 16.45,35.97 33.16,16 47.61,-0.28 M -0.76,59.9 C 16.03,43.75 33.79,23.14 55,-0.71 M 0.53,61.09 C 19.06,37.6 38.48,14.59 53.51,0.8 M 0.95,67.31 C 19.55,44.92 40,20.82 56.9,-1.76 M -0.28,68.06 C 21.25,42.57 40.84,20.51 59.05,0.07 M 0.08,72.29 C 15.15,54.14 34.99,33.8 61.96,0.64 M -0.8,73.37 C 24.32,44.55 49.5,16.74 64.17,0.38 M 0.59,79.08 C 24.68,49.93 48.16,25.78 66.98,-0.1 M 0.14,79.66 C 18.52,59.46 35.8,38.68 69.01,1.14 M -0.05,86.76 C 21.12,64.74 37.39,42.02 73.13,-1.52 M -0.58,85.86 C 23.49,58.01 47.82,30.28 73.54,-0.6 M -1.76,90.01 C 30.98,55.87 59.29,22.85 80.98,-1.42 M 0.72,92.29 C 26.78,60.43 55.85,28.77 79.63,0.08 M -0.3,97.72 C 21.29,72 40.63,46.88 86.05,-1.17 M 1.14,96.88 C 34.19,60.11 66.24,22.53 84.65,-0.98 M 7.04,95.71 C 31.31,67.57 60.18,35.36 89.91,1.01 M 5.52,98.25 C 26.97,70.8 49.68,45 89.56,-0.72 M 11.25,95.48 C 38.03,65.99 67.41,36.33 95.74,-1.31 M 11.31,97.97 C 28.82,77.26 46.66,56.09 96.51,0.15 M 16.42,96.81 C 40.55,69.75 64.82,41.99 99.34,-0.06 M 15.38,97.64 C 45.84,64.79 73.78,30.5 100.92,-0.58 M 20.04,96.46 c 29.2,-32 59.01,-63.84 84.74,-96.44 M 21.37,97.05 C 49.75,63.82 79.22,28.56 107.1,0.46 M 26.07,96.92 C 60.43,60.8 95.09,22.38 111.37,0.06 M 26.83,97.37 C 52.13,67.85 77.48,38.16 110.31,0.43 M 30.52,97 C 53.29,71.55 77.87,47.16 116.63,0.5 M 31.74,97.25 C 62.88,60.62 96.09,24.47 115.74,0.16 M 38.48,96.61 C 67.71,61.93 99.17,28.48 122.61,0.03 M 37.67,98.06 C 63.28,66.88 89.88,37.55 121.83,0.53 M 41.7,95.38 C 65.6,68.98 91.44,41.99 128.24,0.53 M 42.32,95.95 C 61.53,76.54 81.91,55.08 126.69,-0.06 M 47.66,97.4 C 68.84,69.19 91.38,46.15 134.23,-1.51 M 48.67,97.11 c 28.2,-32.75 57.1,-64.06 83.37,-97.94 M 53.11,97.85 C 76.4,70.83 99.25,42.43 136.12,1.72 M 53.5,97.82 C 71.25,75.72 89.03,56.15 138.25,0.55 M 57.16,95.78 C 79.51,73.03 98.43,51.96 141.9,0.04 M 58.57,97.69 C 77.1,77.49 94.63,55.32 143.01,0.09 M 62.81,96.66 C 86.72,68.64 111.4,44.85 148.98,1.93 M 65.15,97.77 c 30.59,-37.76 64.6,-77.02 83.2,-97.06 m -78.3,96.5 C 99.48,63.53 133.7,24.12 153.84,1.25 M 69.13,97.73 C 97.84,62.27 128.9,29.11 153.28,0.29 M 72.74,96.74 C 95.11,72.03 118.18,46.3 157.05,1.94 M 74.97,96.74 C 96.91,71.73 121.11,45.15 158.89,0.93 M 78.94,98.13 C 112.01,63.51 139.32,24.8 164.81,0.67 M 80.06,96.91 C 101.84,73.3 122.25,49.24 164.89,-0.97 M 85.32,98.76 C 118.24,61.31 151.27,20.84 170.08,-0.46 M 84.11,97.68 C 107.18,70.55 128.39,45.55 168.76,0.5 M 91.98,95.94 C 117.94,67.85 143.52,35.32 174.08,0.8 M 90.07,97.71 C 119.6,62.24 151.25,26 174.33,-1.15 M 93.57,97.61 C 123.63,64.2 154.21,31.14 179.38,-0.52 M 96.25,97.07 C 112.2,77.55 131,57.9 180.86,0.44 M 102.83,99 C 129.64,64.18 157.13,30.02 187.47,-1.88 M 101.86,96.35 C 120.28,74.16 141.48,50.46 185.62,0.54 m -79.96,96.84 c 29.96,-32.74 63.26,-70.32 86.12,-97.92 m -86.6,97.41 C 128.74,71.59 151.35,43.9 191.03,0.56 m -78.34,96.09 c 23.77,-29 48.97,-60.4 82.62,-95.57 M 111.1,97.81 C 144.87,59.14 179.49,19.19 197.22,0.16 m -78.9,97.99 C 137,78.04 152.26,55.74 199.63,0.16 m -82.42,98.2 C 138.84,73.95 157.98,49.54 201.14,0.43 M 124.3,97.21 C 151.95,64.98 178.88,33.77 206.48,0.09 M 121.44,96.86 C 142.2,73.41 163.08,49.71 207.12,0.04 m -80.33,97.92 c 22.08,-23.11 42.28,-47.85 84.02,-98.73 m -82.7,97.79 c 21.26,-24.88 42.33,-50.28 83.9,-96.63 m -80.1,97.54 C 158.66,69.37 181.25,42.29 218.38,1.54 m -84.83,95.48 c 26.11,-31.8 55.18,-64.47 84.19,-97.25 M 138.85,98.82 C 162.74,65.01 191.16,36.42 222.76,1.3 M 138.15,97.66 C 159.34,72.6 180.2,46.75 222.46,0.54 m -79.12,94.54 c 26.17,-28.41 52.27,-56.12 83.61,-97.3 m -82.91,99.79 c 27.44,-31.53 56.02,-62.68 85,-98.35 M 148.81,96.7 C 173.6,70.26 196.64,41.85 232.42,-0.05 m -83.35,97.37 c 26.48,-30.45 52.7,-62.24 83.22,-97.58 m -78.4,98.11 C 174.15,75.05 191.13,54.96 240.01,1.89 M 154.52,96.57 C 174.73,74.11 195.76,49.64 238.77,0.25 m -79.25,95.31 c 27.09,-26.3 50.6,-57.07 82.76,-95.82 M 159.11,98.3 C 189.1,62.65 217.75,29.8 243.28,0.62 m -78.84,97.81 c 31.39,-36.35 63.41,-74.65 85.42,-99.78 m -85.25,99.2 C 197.09,59 229.41,21.24 248.15,0.76 M 168.34,97.31 C 195.55,64.6 222.73,34.92 254.35,-1.81 M 169.97,97.18 C 198.9,61.52 229.79,28.04 254.22,0.58 m -78.85,97.39 c 16.58,-24.03 35.49,-44.47 84,-98.9 M 174.88,95.98 C 197.5,73.14 218.59,48.71 258.91,0.15 m -77.72,95.68 c 32.23,-37.18 62.94,-72.86 82.98,-96.04 m -84.3,98.02 C 198.01,77.52 215.48,57.75 265.85,0.79 M 183.94,97.35 C 208.92,71.02 229.66,45.67 270.62,-0.62 M 185.24,98.06 C 216.25,63.17 247.56,26.31 270.92,-0.66 M 190.5,98.98 c 29.24,-35 58,-65.7 84.32,-100.97 M 190.47,96.3 c 26.72,-25.77 50.75,-55.31 85.44,-97.12 m -79,96.96 c 29.32,-35.28 61.77,-70.66 85.27,-96.37 m -85.62,97.95 c 23.11,-27.91 47.85,-56.14 83.98,-97.2 m -79.3,98.06 c 26.93,-33.07 55.12,-61.8 85.67,-97.3 M 201.96,98.02 C 218.7,76.72 235.9,56.88 286.12,-0.56 m -77.49,99.71 c 19.1,-26.12 38.1,-47.1 80.58,-98.46 m -81.5,95.89 C 241.03,59.57 272.47,20.53 289.64,2.4 M 212.9,96.42 C 235.03,69.46 258.73,44.76 289.37,7.3 m -77.39,89.31 c 23.18,-26.15 44.73,-50.71 78,-88.29 m -72.39,91.09 c 23.6,-28.87 48.88,-58.52 73.23,-83.61 m -73.61,82.5 c 21.7,-25.56 43.16,-50.8 72.77,-84.05 m -68.47,84 c 21,-25.37 41.42,-47.02 69.63,-77.58 m -68.46,76.3 C 242.54,73.8 262.98,50.33 289.46,20.29 M 227.84,96.91 C 249.06,72.06 274.25,46.8 287.7,27.4 M 227.58,98.27 C 244.13,80.09 259.2,61.81 289.91,26.25 M 233.65,95.81 C 255.29,72.25 276.09,52.53 290.01,33.43 M 233.67,96.28 C 251.47,75.93 270.9,55.15 288.83,33.06 M 238.97,96.61 C 256.88,76.18 275.64,54.36 288.59,39.56 M 238.3,96.7 C 253.98,79.64 270.27,62.08 289.71,37.64 M 244.39,96.8 c 9.8,-11.27 19.09,-25.78 43.68,-50.14 m -43.01,50.31 c 10.52,-14.05 24.33,-28.48 44.03,-52.85 m -41.02,54.33 c 12.51,-13.99 20.97,-24.49 40,-47.37 m -39.23,46.43 c 15.49,-16.35 28.18,-31.45 39.67,-46.82 m -33.15,48.18 c 8.19,-12.9 17.47,-22.24 36.22,-41.25 m -37.14,40.13 c 7.11,-9.82 14.65,-18.14 34.45,-40.73 m -29.09,42.3 c 6.52,-9.18 17.44,-20.08 31.44,-36.86 m -31.58,34.96 c 9.41,-9.35 17.42,-20.93 30.22,-34.74 m -25.16,32.99 c 8.61,-5.56 13.42,-13.76 23.61,-25.11 M 265.89,96.59 C 274.18,85.8 283.05,76.61 288.85,69.03 M 272.31,99.1 c 2.5,-9.87 10.35,-14.95 15.44,-24.67 M 271.2,96.91 c 3.9,-5.62 9.59,-12.33 17.72,-21.51 m -11.77,23.39 c 1.56,-4.28 5.88,-9.22 11.84,-15.34 m -12.03,14.26 c 4.41,-7.14 8.24,-11.57 12.98,-16.75 m -10,17.19 c 2.63,-3.24 5.96,-5.81 8.92,-11.03 m -7.88,10.12 c 2.2,-3.53 4.98,-6.34 8.8,-9.97 m -3.19,9.42 c 1.03,-0.35 1.12,-1.5 2.47,-2.59 m -2.11,2.75 c 0.38,-0.5 0.9,-1.07 2.37,-3.12"
         stroke="#be4bdb"
         stroke-width="0.5"
         fill="none"
         id="path344" />
      <path
         d="M 0.71,0.85 C 71.27,-0.09 139.11,-1.33 287.04,0.59 M 0.32,0.58 c 95.3,1.56 190.88,0.3 286.16,-0.14 m 0.45,-1.18 c 0.91,33.11 -0.73,66.2 1.18,97.66 m -0.25,-97.61 c 0.32,21.3 0.61,41.78 -0.35,97.69 m -0.24,0.91 C 211.15,94.54 136.43,96.26 0.47,95.55 m 286.94,1.72 C 195.78,97.22 104.46,96.46 0.15,96.91 m 1.46,1.76 C -1.08,59.44 1.29,22.86 1.41,-1.52 M 0.74,97.72 C -0.88,63.89 0.14,32.17 0.32,-0.89"
         stroke="#000000"
         stroke-width="1"
         fill="none"
         id="path346" />
    </g>
    <g
       transform="matrix(0.79375,0,0,0.79375,107.45917,113.367)"
       id="g352">
      <text
         x="0"
         y="0"
         font-family="Virgil, 'Segoe UI Emoji'"
         font-size="20px"
         fill="#000000"
         text-anchor="start"
         style="white-space:pre"
         direction="ltr"
         dominant-baseline="text-before-edge"
         id="text350">Dependency Injection</text>
    </g>
    <g
       stroke-linecap="round"
       transform="matrix(0.79375,0,0,0.79375,305.84541,84.791999)"
       id="g358">
      <path
         d="M 0,0 C 0,0 0,0 0,0 M 0,0 C 0,0 0,0 0,0 M -0.26,7.14 C 0.87,5.36 2.87,3.56 5.4,0.47 M -0.44,6.54 C 1.46,5.12 2.58,3.46 5.23,0.35 M 0.3,11.05 C 1.57,9.41 5.57,4.86 10.58,1.1 M 0.84,12.77 C 3.8,7.68 7.96,4.04 10.61,-0.32 M 0.49,16.61 C 3.91,16.26 7.56,12.76 13.74,1.06 M 0.51,18.83 C 5.38,13.1 10.59,6.24 15.97,0.17 M 2.12,22.3 C 7.76,14.63 13.73,7.01 21.78,0.46 M 1.01,24.32 C 7.24,16.73 12.09,9.04 21.1,0.79 M 0.58,29.2 C 8.11,20.12 18.69,9.66 24.53,1.92 M 0.29,29.61 C 5.55,24.27 12.47,15.93 25.36,-0.42 M -0.14,38.46 C 10.26,24.3 23.61,10.19 33.3,1.61 M 0.5,37.11 C 6.72,27.71 15.03,20.28 31.54,0.22 M -0.67,43.53 C 11.26,30.71 22.95,14.25 38.34,-0.14 M 0.26,42.13 C 12.48,27.56 25.62,12.17 37.7,-0.61 M -1.56,48.8 C 11.01,36.11 20.47,26.85 42.78,1.48 M -0.07,48.45 C 8.22,38.85 17.52,28.54 42.63,-0.92 M 2.03,54.63 C 11.82,37.78 26.11,25.92 48.05,2.07 M 0.31,55.4 C 16.49,35.48 32.87,17.78 47.7,-0.08 M 1.73,59.65 C 17.02,41.69 35.52,19.49 51.85,0.3 M 0.55,61.22 C 18.64,38.98 38.61,16.67 52.33,-0.45 M 1.28,65.84 C 13.77,52.21 28.7,35.88 57.55,0.27 M -1.07,68.15 C 14.49,51.9 27.85,33.45 57.84,-0.04 M 1.22,73.08 C 19.27,50.21 40.46,27.88 64.13,-0.22 M 0.01,72.02 C 23.88,45.6 47.8,18.31 62.89,-0.2 M 1.62,79.75 C 18.12,59.74 37.31,37.21 67.65,0.69 M 0.86,78.86 C 14.45,62.34 29.2,44.3 69.36,-0.21 M 1.38,85.74 C 20.73,61.87 42,37.15 75.18,1.19 M 0.76,84.95 C 24.41,58.19 47.85,31.55 73.8,-1.02 M 1.6,92.77 C 19.56,67.42 36.94,44.72 78.18,-1.86 M 0.13,91.23 C 16.07,71.26 33.84,53.18 79.27,0.16 M 1.63,98.76 C 21.49,73.13 42.99,45.95 86.54,-0.67 M 0.97,96.57 C 23.16,70.57 45.91,44.8 84.82,0.2 M 3.63,96.03 C 28.93,70.25 48.01,48.5 89.91,1.9 M 4.95,98.16 C 28.91,70.54 51.18,44.95 89.33,-0.66 M 12.87,95.77 C 38.09,65.25 64.12,36.26 95.72,0.53 M 10.11,96.88 C 39.98,62.8 69.13,29.13 94.98,-0.42 M 16.84,98.22 C 41.59,72.3 64.59,43.65 102.58,1.84 M 15.52,97.59 C 36.03,74.17 55.28,49.89 101.09,0.04 M 19.98,97.05 C 41.13,75.44 59.04,53.83 106.21,0.64 M 22.41,96.49 C 40.05,75.86 56.61,56.79 105.59,-0.77 M 27.09,95.62 C 45.27,77.41 61.14,57.21 112.9,-1.69 M 27.09,97.46 C 50.3,70.53 73.73,43.02 110.86,0.48 M 31.29,97.35 C 65.52,58.24 96.63,19.35 116.78,-0.2 M 31.36,97.43 C 62.45,62.92 93.17,26.18 116.54,0.98 M 37.44,97.99 C 58.38,71.18 81.91,47.52 120.55,0.23 M 37.4,96.68 C 64.82,67.66 91.68,36.42 122.69,-0.63 M 42.11,95.96 C 74.12,62.74 105.55,27.19 126.18,1.43 M 42.21,96.21 C 63.04,71.98 85.68,46.49 125.98,0.38 M 48.95,96.63 C 68.04,71.25 89.03,49.2 134.19,-0.97 M 48.47,98.1 C 65.15,77.65 81.64,58.6 133.43,0.88 M 52.71,98.68 C 76,68.1 101.96,40.68 139.12,-1.26 M 52.99,96.83 C 71.4,77.93 87.19,56.73 137.34,0.25 M 58.61,98.36 C 74.35,76.37 94.04,58.04 141.43,-1.32 M 57.58,97.62 C 90.34,59.86 121.77,23.57 143.67,-0.31 M 62.33,95.85 C 86.67,74.83 106.89,47.01 145,3.96 M 63.49,97.77 c 21.39,-25.71 41,-48.29 83.52,-94.89 M 69.41,95.55 C 98.01,62.66 126.24,28.19 147.65,9.98 M 68.28,97.06 c 31.14,-33 60.36,-67.83 79.3,-88.81 M 74.54,97.11 C 102.63,64.02 131.09,33.3 144.56,14.17 M 73.6,97.75 C 96.59,71.43 117.34,46.14 146.07,14.84 M 80.29,96.07 C 97.82,74.59 118.73,52.75 148.33,19.42 M 79.37,97.26 C 103.96,70.15 126.3,42.29 146.2,20.67 M 85.83,98.35 C 105.95,76.58 124.35,53.75 147.64,26.6 M 84.96,97.72 C 97.46,82.9 111.15,67.63 146.91,27.33 M 92.17,97.35 C 104.15,82.6 116.52,68.98 146.62,33.57 M 89.94,97.05 c 19.1,-20.4 36.3,-41.42 56.14,-64.99 m -50.4,64.2 c 13.79,-16.32 29.7,-36.13 51.81,-56.45 M 95.99,98.35 C 108.61,81.36 123.11,65.16 146.71,38.33 M 101.94,96.35 C 116.03,80.2 132.03,61.14 147.34,44.98 M 100.32,96.21 C 116.06,78.98 131.57,62.03 146.17,45.5 M 107.22,99.31 C 122.1,79.94 135.47,63.5 147.34,49.93 M 105.55,98.07 C 118.9,82.19 132.58,66.62 146.89,49.82 M 112.44,95.54 C 124.75,82.39 136.7,67.6 146.28,59.05 m -35.15,37.49 c 12.66,-11.45 23.45,-24.69 35.13,-38.69 m -29.72,40.64 c 6.59,-8.89 17.59,-19.45 29.19,-33.15 m -28.47,31.45 c 7.73,-8.06 14.71,-17.3 28.2,-33.28 M 122.5,96.94 c 3.17,-4.24 9.27,-9.33 24.38,-28.01 m -24.63,27.89 c 5.91,-6.28 11.02,-10.72 24.3,-27.14 m -19.86,27.66 c 4.17,-6.19 8.75,-11.97 18.45,-23.63 m -18.66,23.17 c 7.56,-6.62 14.93,-14.7 20.22,-22.05 M 132.9,96.1 c 5.09,-6.71 8.7,-10.96 12.64,-13.79 M 133.8,97.78 c 3.04,-4.48 6.01,-7.13 12.18,-16.73 m -8.19,16.68 c 3.02,-3.41 6.96,-9.33 8.41,-9.56 m -8.62,9.76 c 2.02,-2.99 5.25,-5.57 8.7,-9.78 m -2.53,8.66 c 0.42,-0.96 1.48,-2.26 2.21,-3.2 m -2.45,3.42 c 0.96,-1.12 2.15,-2.33 2.78,-3.2"
         stroke="#228be6"
         stroke-width="0.5"
         fill="none"
         id="path354" />
      <path
         d="M 0.04,1.53 C 32.6,-1.82 66.41,-1.71 144.84,0.71 M -0.61,-0.16 c 53.44,-0.73 105.27,-0.38 143.62,-0.52 m 2.31,0.13 c 0.24,29.75 -2.25,59.25 -0.11,96.2 M 143.9,0.31 c 0.75,32.34 0.77,66.01 0.27,95.81 m 1.27,1 C 110.61,95.87 74.95,95.17 0.84,97.35 M 144.92,96.14 C 90.45,98.14 34.85,96.89 -0.4,97.11 M -0.64,96.75 C 1.53,74.42 -1.17,53.83 -1.94,0.11 M 0.67,96.02 C 1.07,69.33 0.43,43.27 -0.32,-0.64"
         stroke="#000000"
         stroke-width="1"
         fill="none"
         id="path356" />
    </g>
    <g
       transform="matrix(0.79375,0,0,0.79375,348.74099,113.367)"
       id="g362">
      <text
         x="0"
         y="0"
         font-family="Virgil, 'Segoe UI Emoji'"
         font-size="20px"
         fill="#000000"
         text-anchor="start"
         style="white-space:pre"
         direction="ltr"
         dominant-baseline="text-before-edge"
         id="text360">Init</text>
    </g>
  </g>
</svg>
